<?xml version="1.0" encoding="UTF-8" standalone="no"?>
<svg
   viewBox="0 0 920 648"
   version="1.1"
   id="svg297"
   sodipodi:docname="de-physik-mechanik-kräfte-hookesche_gesetz_infografik_dehnung_der_feder_durch_unterschiedliche_gewichte.svg"
   inkscape:version="1.4-dev (6bf474cfa7, 2023-08-26)"
   xmlns:inkscape="http://www.inkscape.org/namespaces/inkscape"
   xmlns:sodipodi="http://sodipodi.sourceforge.net/DTD/sodipodi-0.dtd"
   xmlns="http://www.w3.org/2000/svg"
   xmlns:svg="http://www.w3.org/2000/svg">
  <sodipodi:namedview
     id="namedview297"
     pagecolor="#ffffff"
     bordercolor="#000000"
     borderopacity="0.25"
     inkscape:showpageshadow="2"
     inkscape:pageopacity="0.0"
     inkscape:pagecheckerboard="0"
     inkscape:deskcolor="#d1d1d1"
     inkscape:zoom="0.89565217"
     inkscape:cx="460.55825"
     inkscape:cy="323.78641"
     inkscape:window-width="1900"
     inkscape:window-height="1020"
     inkscape:window-x="0"
     inkscape:window-y="0"
     inkscape:window-maximized="1"
     inkscape:current-layer="svg297" />
  <defs
     id="defs16">
    <style
       id="style1">.j{fill:url(#f);}.k{fill:url(#e);}.l,.m,.n,.o,.p,.q,.r{fill:none;}.s{fill:#fa3273;}.t{fill:#00dcb4;}.u{fill:#fff;}.v{fill:#d2d9e0;}.w{fill:#10324c;}.x{fill:#213345;}.y{fill:#1478c8;}.z{fill:#96a6b6;}.aa{fill:#2d506e;}.m{stroke-dasharray:0 0 8.9794 8.9794;}.m,.n,.o,.p,.q,.r{stroke-linecap:round;stroke-width:2px;}.m,.n,.p,.q,.r{stroke:#1478c8;stroke-linejoin:round;}.o{stroke:#f0f2f5;stroke-miterlimit:10;}.p{stroke-dasharray:0 0 7.8602 7.8602;}.ab{opacity:.5;}.ac{opacity:.75;}.q{stroke-dasharray:0 0 10.0808 10.0808;}.r{stroke-dasharray:0 0 12.3195 12.3195;}</style>
    <linearGradient
       id="e"
       x1="53.6566"
       y1="606.4687"
       x2="53.6566"
       y2="593.8169"
       gradientUnits="userSpaceOnUse">
      <stop
         offset="0"
         stop-color="#1e8cc8"
         id="stop1" />
      <stop
         offset=".1527"
         stop-color="#1e8cc8"
         id="stop2" />
      <stop
         offset=".2249"
         stop-color="#1d84c4"
         id="stop3" />
      <stop
         offset=".3363"
         stop-color="#1a6eba"
         id="stop4" />
      <stop
         offset=".3999"
         stop-color="#195fb4"
         id="stop5" />
      <stop
         offset=".4598"
         stop-color="#176eb5"
         id="stop6" />
      <stop
         offset=".5763"
         stop-color="#1198bb"
         id="stop7" />
      <stop
         offset=".6336"
         stop-color="#0fafbe"
         id="stop8" />
      <stop
         offset=".7402"
         stop-color="#0cb6bc"
         id="stop9" />
      <stop
         offset=".9034"
         stop-color="#05ccb7"
         id="stop10" />
      <stop
         offset="1"
         stop-color="#00dcb4"
         id="stop11" />
    </linearGradient>
    <linearGradient
       id="f"
       x1="53.6566"
       y1="606.4955"
       x2="53.6566"
       y2="593.9013"
       gradientUnits="userSpaceOnUse">
      <stop
         offset="0"
         stop-color="#1e8cc8"
         id="stop12" />
      <stop
         offset=".6237"
         stop-color="#0abebe"
         id="stop13" />
      <stop
         offset=".758"
         stop-color="#08c2bc"
         id="stop14" />
      <stop
         offset=".9099"
         stop-color="#03d0b7"
         id="stop15" />
      <stop
         offset="1"
         stop-color="#00dcb4"
         id="stop16" />
    </linearGradient>
  </defs>
  <g
     id="a"
     inkscape:label="a">
    <rect
       class="u"
       x="16"
       y="16"
       width="888"
       height="558.59375"
       rx="4"
       ry="3.6272321"
       id="rect16"
       style="stroke-width:0.952265" />
  </g>
  <g
     id="h">
    <g
       id="g90">
      <g
         id="g89">
        <path
           class="x"
           d="m319.54,47.999h7.0996c5.6416,0,9.5557,3.5898,9.5557,9.0156s-3.9141,8.9883-9.5557,8.9883h-7.0996v-18.0039Zm7.0996,14.6299c3.5625,0,5.6416-2.5645,5.6416-5.6143,0-3.1855-1.9434-5.6416-5.6416-5.6416h-3.2666v11.2559h3.2666Z"
           id="path72" />
        <path
           class="x"
           d="m346.6982,64.6533c-.8906,1.0527-2.4297,1.6738-4.1299,1.6738-2.0781,0-4.5352-1.4033-4.5352-4.3193,0-3.0498,2.457-4.1562,4.5352-4.1562,1.7275,0,3.2666.54,4.1299,1.5928v-1.8086c0-1.3232-1.1338-2.1865-2.8613-2.1865-1.4033,0-2.6992.5127-3.8057,1.5381l-1.2959-2.2939c1.5928-1.4033,3.6445-2.0518,5.6953-2.0518,2.9697,0,5.6963,1.1875,5.6963,4.9395v8.4219h-3.4287v-1.3496Zm0-3.4004c-.5664-.7559-1.6465-1.1338-2.7529-1.1338-1.3496,0-2.457.7012-2.457,1.9697,0,1.2148,1.1074,1.917,2.457,1.917,1.1064,0,2.1865-.3779,2.7529-1.1338v-1.6191Z"
           id="path73" />
        <path
           class="x"
           d="m353.9238,61.9004c.9443.8906,2.8877,1.7812,4.5078,1.7812,1.4844,0,2.1865-.5127,2.1865-1.3223,0-.918-1.1338-1.2422-2.6191-1.5391-2.2402-.4316-5.1279-.9717-5.1279-4.0752,0-2.1865,1.916-4.1035,5.3447-4.1035,2.2129,0,3.9678.7559,5.2627,1.7812l-1.376,2.3486c-.7832-.8369-2.2676-1.5117-3.8604-1.5117-1.2412,0-2.0508.459-2.0508,1.2148,0,.8096,1.0254,1.1064,2.4824,1.4033,2.2412.4326,5.2373,1.0264,5.2373,4.2656,0,2.375-2.0244,4.1836-5.6416,4.1836-2.2676,0-4.4541-.7559-5.8311-2.0244l1.4854-2.4023Z"
           id="path74" />
        <path
           class="x"
           d="m386.3105,58.4453h-8.5029v7.5576h-3.833v-18.0039h3.833v7.0723h8.5029v-7.0723h3.8604v18.0039h-3.8604v-7.5576Z"
           id="path75" />
        <path
           class="x"
           d="m393.0586,59.4707c0-3.6982,2.5918-6.8291,6.8838-6.8291,4.3184,0,6.9102,3.1309,6.9102,6.8291,0,3.7256-2.5918,6.8564-6.9102,6.8564-4.292,0-6.8838-3.1309-6.8838-6.8564Zm10.2305,0c0-2.0244-1.2148-3.7783-3.3467-3.7783s-3.3203,1.7539-3.3203,3.7783c0,2.0518,1.1875,3.8066,3.3203,3.8066s3.3467-1.7549,3.3467-3.8066Z"
           id="path76" />
        <path
           class="x"
           d="m408.709,59.4707c0-3.6982,2.5908-6.8291,6.8828-6.8291,4.3184,0,6.9102,3.1309,6.9102,6.8291,0,3.7256-2.5918,6.8564-6.9102,6.8564-4.292,0-6.8828-3.1309-6.8828-6.8564Zm10.2295,0c0-2.0244-1.2148-3.7783-3.3467-3.7783s-3.3203,1.7539-3.3203,3.7783c0,2.0518,1.1875,3.8066,3.3203,3.8066s3.3467-1.7549,3.3467-3.8066Z"
           id="path77" />
        <path
           class="x"
           d="m430.1377,60.9824l-1.5654,1.6738v3.3467h-3.4287v-18.0039h3.4287v10.7705l4.9395-5.8037h4.2109l-5.1553,5.9111,5.3174,7.126h-4.292l-3.4551-5.0205Z"
           id="path78" />
        <path
           class="x"
           d="m445.0176,52.6416c3.8867,0,6.5322,2.915,6.5322,7.1807v.7549h-9.6904c.2158,1.6475,1.5381,3.0234,3.752,3.0234,1.2148,0,2.6455-.4854,3.4814-1.2959l1.5117,2.2139c-1.2949,1.1875-3.3467,1.8086-5.3711,1.8086-3.9678,0-6.9639-2.6719-6.9639-6.8564,0-3.7783,2.7793-6.8291,6.748-6.8291Zm-3.2129,5.6143h6.4248c-.0811-1.2412-.9453-2.8877-3.2119-2.8877-2.1328,0-3.0508,1.5928-3.2129,2.8877Z"
           id="path79" />
        <path
           class="x"
           d="m454.4434,61.9004c.9443.8906,2.8877,1.7812,4.5078,1.7812,1.4844,0,2.1865-.5127,2.1865-1.3223,0-.918-1.1338-1.2422-2.6191-1.5391-2.2402-.4316-5.1279-.9717-5.1279-4.0752,0-2.1865,1.916-4.1035,5.3447-4.1035,2.2129,0,3.9678.7559,5.2627,1.7812l-1.376,2.3486c-.7832-.8369-2.2676-1.5117-3.8604-1.5117-1.2412,0-2.0508.459-2.0508,1.2148,0,.8096,1.0254,1.1064,2.4824,1.4033,2.2412.4326,5.2373,1.0264,5.2373,4.2656,0,2.375-2.0244,4.1836-5.6416,4.1836-2.2676,0-4.4541-.7559-5.8311-2.0244l1.4854-2.4023Z"
           id="path80" />
        <path
           class="x"
           d="m473.0996,52.6416c2.6719,0,4.291,1.1611,5.1553,2.3486l-2.2402,2.1055c-.6211-.918-1.5654-1.4033-2.7539-1.4033-2.0781,0-3.5361,1.5107-3.5361,3.7783s1.458,3.8066,3.5361,3.8066c1.1885,0,2.1328-.54,2.7539-1.4043l2.2402,2.0791c-.8643,1.2139-2.4834,2.375-5.1553,2.375-4.0225,0-6.9102-2.834-6.9102-6.8564,0-3.9951,2.8877-6.8291,6.9102-6.8291Z"
           id="path81" />
        <path
           class="x"
           d="m489.2656,58.0674c0-1.8086-.9453-2.375-2.4297-2.375-1.3223,0-2.375.7549-2.9688,1.5381v8.7725h-3.4287v-18.0039h3.4287v6.667c.8369-.999,2.4561-2.0244,4.5889-2.0244,2.8613,0,4.2373,1.5654,4.2373,4.1035v9.2578h-3.4277v-7.9355Z"
           id="path82" />
        <path
           class="x"
           d="m502.0508,52.6416c3.8867,0,6.5322,2.915,6.5322,7.1807v.7549h-9.6904c.2158,1.6475,1.5381,3.0234,3.752,3.0234,1.2148,0,2.6455-.4854,3.4814-1.2959l1.5117,2.2139c-1.2949,1.1875-3.3467,1.8086-5.3711,1.8086-3.9678,0-6.9639-2.6719-6.9639-6.8564,0-3.7783,2.7793-6.8291,6.748-6.8291Zm-3.2129,5.6143h6.4248c-.0811-1.2412-.9453-2.8877-3.2119-2.8877-2.1328,0-3.0508,1.5928-3.2129,2.8877Z"
           id="path83" />
        <path
           class="x"
           d="m527.3105,47.7021c3.7256,0,6.0732,1.8086,7.4502,3.9404l-3.1855,1.7275c-.8359-1.2686-2.375-2.2666-4.2646-2.2666-3.2656,0-5.6416,2.5098-5.6416,5.9111s2.376,5.9111,5.6416,5.9111c1.6465,0,3.1045-.6748,3.8867-1.376v-2.1865h-4.8047v-3.293h8.584v6.8828c-1.835,2.0518-4.3994,3.4014-7.666,3.4014-5.2637,0-9.582-3.6719-9.582-9.3398,0-5.6953,4.3184-9.3125,9.582-9.3125Z"
           id="path84" />
        <path
           class="x"
           d="m544.1768,52.6416c3.8867,0,6.5322,2.915,6.5322,7.1807v.7549h-9.6904c.2158,1.6475,1.5381,3.0234,3.752,3.0234,1.2148,0,2.6455-.4854,3.4814-1.2959l1.5117,2.2139c-1.2949,1.1875-3.3467,1.8086-5.3711,1.8086-3.9678,0-6.9648-2.6719-6.9648-6.8564,0-3.7783,2.7803-6.8291,6.749-6.8291Zm-3.2129,5.6143h6.4248c-.0811-1.2412-.9453-2.8877-3.2119-2.8877-2.1328,0-3.0508,1.5928-3.2129,2.8877Z"
           id="path85" />
        <path
           class="x"
           d="m553.6016,61.9004c.9443.8906,2.8877,1.7812,4.5078,1.7812,1.4844,0,2.1865-.5127,2.1865-1.3223,0-.918-1.1338-1.2422-2.6191-1.5391-2.2402-.4316-5.1279-.9717-5.1279-4.0752,0-2.1865,1.916-4.1035,5.3447-4.1035,2.2129,0,3.9678.7559,5.2627,1.7812l-1.376,2.3486c-.7832-.8369-2.2676-1.5117-3.8604-1.5117-1.2412,0-2.0508.459-2.0508,1.2148,0,.8096,1.0254,1.1064,2.4824,1.4033,2.2412.4326,5.2373,1.0264,5.2373,4.2656,0,2.375-2.0244,4.1836-5.6416,4.1836-2.2676,0-4.4541-.7559-5.8311-2.0244l1.4854-2.4023Z"
           id="path86" />
        <path
           class="x"
           d="m572.1104,52.6416c3.8867,0,6.5322,2.915,6.5322,7.1807v.7549h-9.6904c.2158,1.6475,1.5381,3.0234,3.752,3.0234,1.2148,0,2.6455-.4854,3.4814-1.2959l1.5117,2.2139c-1.2949,1.1875-3.3467,1.8086-5.3711,1.8086-3.9678,0-6.9648-2.6719-6.9648-6.8564,0-3.7783,2.7803-6.8291,6.749-6.8291Zm-3.2129,5.6143h6.4248c-.0811-1.2412-.9453-2.8877-3.2119-2.8877-2.1328,0-3.0508,1.5928-3.2129,2.8877Z"
           id="path87" />
        <path
           class="x"
           d="m581.958,62.7637v-6.8018h-2.1592v-2.9961h2.1592v-3.5635h3.4551v3.5635h2.6455v2.9961h-2.6455v5.8848c0,.8096.4326,1.4307,1.1885,1.4307.5127,0,.998-.1895,1.1875-.3779l.7285,2.5908c-.5127.459-1.4307.8369-2.8613.8369-2.4023,0-3.6982-1.2422-3.6982-3.5635Z"
           id="path88" />
        <path
           class="x"
           d="m590.1787,63.4385l5.8848-7.4766h-5.8848v-2.9961h10.5273v2.4834l-5.9658,7.5576h6.0732v2.9961h-10.6348v-2.5645Z"
           id="path89" />
      </g>
      <polyline
         class="l"
         points="322.4812 96 16 96 16 16 904 16 904 96 322.4812 96"
         id="polyline89" />
    </g>
    <g
       id="g113">
      <g
         id="g112">
        <g
           class="ab"
           id="g101">
          <g
             class="ac"
             id="g91">
            <path
               class="s"
               d="m569.6314,308.0141c-.3094,0-.6237-.045-.9353-.1394l-29.6244-9.002c-1.697-.5157-2.6545-2.3096-2.1388-4.0066.5157-1.697,2.3082-2.6542,4.0066-2.1388l29.6244,9.002c1.697.5157,2.6545,2.3096,2.1388,4.0066-.4209,1.3855-1.6949,2.2782-3.0713,2.2782Z"
               id="path90" />
          </g>
          <g
             class="ac"
             id="g92">
            <path
               class="s"
               d="m569.6314,290.8892c-.3094,0-.6237-.045-.9353-.1394l-29.6244-9.002c-1.697-.5157-2.6545-2.3096-2.1388-4.0066.5157-1.6966,2.3082-2.6532,4.0066-2.1388l29.6244,9.002c1.697.5157,2.6545,2.3096,2.1388,4.0066-.4209,1.3855-1.6949,2.2782-3.0713,2.2782Z"
               id="path91" />
          </g>
          <g
             class="ac"
             id="g93">
            <path
               class="s"
               d="m569.6314,273.7646c-.3094,0-.6237-.045-.9353-.1394l-29.6244-9.002c-1.697-.5157-2.6545-2.3096-2.1388-4.0066.5157-1.697,2.3082-2.6545,4.0066-2.1388l29.6244,9.002c1.697.5157,2.6545,2.3096,2.1388,4.0066-.4209,1.3855-1.6949,2.2782-3.0713,2.2782Z"
               id="path92" />
          </g>
          <g
             class="ac"
             id="g94">
            <path
               class="s"
               d="m569.6314,256.64c-.3094,0-.6237-.045-.9353-.1394l-29.6244-9.002c-1.697-.5157-2.6545-2.3096-2.1388-4.0066.5157-1.697,2.3082-2.6542,4.0066-2.1388l29.6244,9.002c1.697.5157,2.6545,2.3096,2.1388,4.0066-.4209,1.3855-1.6949,2.2782-3.0713,2.2782Z"
               id="path93" />
          </g>
          <g
             class="ac"
             id="g95">
            <path
               class="s"
               d="m569.6314,239.5151c-.3094,0-.6237-.045-.9353-.1394l-29.6244-9.002c-1.697-.5157-2.6545-2.3096-2.1388-4.0066.5157-1.6973,2.3082-2.6535,4.0066-2.1388l29.6244,9.002c1.697.5157,2.6545,2.3096,2.1388,4.0066-.4209,1.3855-1.6949,2.2782-3.0713,2.2782Z"
               id="path94" />
          </g>
          <g
             class="ac"
             id="g96">
            <path
               class="s"
               d="m569.6314,222.3905c-.3094,0-.6237-.045-.9353-.1394l-29.6244-9.002c-1.697-.5157-2.6545-2.3096-2.1388-4.0066.5157-1.697,2.3082-2.6532,4.0066-2.1388l29.6244,9.002c1.697.5157,2.6545,2.3096,2.1388,4.0066-.4209,1.3855-1.6949,2.2782-3.0713,2.2782Z"
               id="path95" />
          </g>
          <g
             class="ac"
             id="g97">
            <path
               class="s"
               d="m569.6314,205.2656c-.3094,0-.6237-.045-.9353-.1394l-29.6244-9.0017c-1.697-.5157-2.6545-2.3092-2.1388-4.0062.5157-1.6973,2.3082-2.6549,4.0066-2.1392l29.6244,9.0017c1.697.5157,2.6545,2.3092,2.1388,4.0062-.4209,1.3858-1.6949,2.2786-3.0713,2.2786Z"
               id="path96" />
          </g>
          <g
             class="ac"
             id="g98">
            <path
               class="s"
               d="m569.6314,188.141c-.3094,0-.6237-.045-.9353-.1394l-29.6244-9.002c-1.697-.5157-2.6545-2.3096-2.1388-4.0066.5157-1.697,2.3082-2.6538,4.0066-2.1388l29.6244,9.002c1.697.5157,2.6545,2.3096,2.1388,4.0066-.4209,1.3855-1.6949,2.2782-3.0713,2.2782Z"
               id="path97" />
          </g>
          <g
             class="ac"
             id="g99">
            <path
               class="s"
               d="m569.6314,171.0164c-.3094,0-.6237-.045-.9353-.1394l-29.6244-9.002c-1.697-.5157-2.6545-2.3096-2.1388-4.0066.5157-1.6966,2.3082-2.6532,4.0066-2.1388l29.6244,9.002c1.697.5157,2.6545,2.3096,2.1388,4.0066-.4209,1.3855-1.6949,2.2782-3.0713,2.2782Z"
               id="path98" />
          </g>
          <g
             class="ac"
             id="g100">
            <path
               class="s"
               d="m569.6314,153.8915c-.3094,0-.6237-.045-.9353-.1394l-29.6244-9.0017c-1.697-.5157-2.6545-2.3092-2.1388-4.0062.5157-1.6973,2.3082-2.6532,4.0066-2.1392l29.6244,9.0017c1.697.5157,2.6545,2.3092,2.1388,4.0062-.4209,1.3858-1.6949,2.2786-3.0713,2.2786Z"
               id="path99" />
          </g>
        </g>
        <g
           id="g111">
          <g
             id="g102">
            <line
               class="s"
               x1="540.0054"
               y1="295.8367"
               x2="569.6301"
               y2="287.6422"
               id="line101" />
            <path
               class="s"
               d="m540.0035,299.0487c-1.4078,0-2.6991-.9328-3.0929-2.3559-.4732-1.7095.5297-3.4786,2.2392-3.9512l29.6244-8.1943c1.7033-.4739,3.4776.529,3.9508,2.2388.4732,1.7095-.5297,3.4786-2.2392,3.9512l-29.6244,8.1943c-.2857.0794-.5743.1171-.8579.1171Z"
               id="path101" />
          </g>
          <g
             id="g103">
            <line
               class="s"
               x1="540.0054"
               y1="278.6752"
               x2="569.6301"
               y2="270.5525"
               id="line102" />
            <path
               class="s"
               d="m540.0035,281.8872c-1.4106,0-2.704-.9367-3.095-2.3629-.469-1.7106.5373-3.4773,2.2482-3.9463l29.6244-8.1225c1.7053-.4694,3.4769.5373,3.9459,2.2479.469,1.7106-.5373,3.4773-2.2482,3.9463l-29.6244,8.1225c-.2836.0781-.5694.115-.8509.115Z"
               id="path102" />
          </g>
          <g
             id="g104">
            <line
               class="s"
               x1="540.0054"
               y1="261.5505"
               x2="569.6301"
               y2="253.4278"
               id="line103" />
            <path
               class="s"
               d="m540.0035,264.7626c-1.4106,0-2.704-.9367-3.095-2.3629-.469-1.7106.5373-3.4773,2.2482-3.9463l29.6244-8.1225c1.7053-.469,3.4769.537,3.9459,2.2479.469,1.7106-.5373,3.4773-2.2482,3.9463l-29.6244,8.1225c-.2836.0781-.5694.115-.8509.115Z"
               id="path103" />
          </g>
          <g
             id="g105">
            <line
               class="s"
               x1="540.0054"
               y1="244.4258"
               x2="569.6301"
               y2="236.3031"
               id="line104" />
            <path
               class="s"
               d="m540.0035,247.638c-1.4106,0-2.704-.9367-3.095-2.3629-.469-1.7106.5373-3.4773,2.2475-3.9463l29.6244-8.1229c1.7081-.4683,3.4776.537,3.9466,2.2479.469,1.7106-.5373,3.4773-2.2475,3.9463l-29.6244,8.1229c-.2843.0781-.5701.115-.8516.115Z"
               id="path104" />
          </g>
          <g
             id="g106">
            <line
               class="s"
               x1="540.0054"
               y1="227.3011"
               x2="569.6301"
               y2="219.1784"
               id="line105" />
            <path
               class="s"
               d="m540.0035,230.5131c-1.4106,0-2.704-.9367-3.095-2.3629-.469-1.7106.5373-3.4773,2.2482-3.9463l29.6244-8.1225c1.7053-.4701,3.4769.537,3.9459,2.2479.469,1.7106-.5373,3.4773-2.2482,3.9463l-29.6244,8.1225c-.2836.0781-.5694.115-.8509.115Z"
               id="path105" />
          </g>
          <g
             id="g107">
            <line
               class="s"
               x1="540.0054"
               y1="210.1764"
               x2="569.6301"
               y2="202.0537"
               id="line106" />
            <path
               class="s"
               d="m540.0035,213.3885c-1.4106,0-2.704-.9367-3.095-2.3629-.469-1.7106.5373-3.4773,2.2475-3.9463l29.6244-8.1229c1.7081-.4694,3.4776.5366,3.9466,2.2479.469,1.7106-.5373,3.4773-2.2475,3.9463l-29.6244,8.1229c-.2843.0781-.5701.115-.8516.115Z"
               id="path106" />
          </g>
          <g
             id="g108">
            <line
               class="s"
               x1="540.0054"
               y1="193.0517"
               x2="569.6301"
               y2="184.929"
               id="line107" />
            <path
               class="s"
               d="m540.0035,196.2639c-1.4106,0-2.704-.9367-3.095-2.3629-.469-1.7106.5373-3.4773,2.2475-3.9463l29.6244-8.1229c1.7081-.469,3.4776.537,3.9466,2.2479.469,1.7106-.5373,3.4773-2.2475,3.9463l-29.6244,8.1229c-.2843.0781-.5701.115-.8516.115Z"
               id="path107" />
          </g>
          <g
             id="g109">
            <line
               class="s"
               x1="540.0054"
               y1="175.927"
               x2="569.6301"
               y2="167.8043"
               id="line108" />
            <path
               class="s"
               d="m540.0035,179.139c-1.4106,0-2.704-.9367-3.095-2.3629-.469-1.7106.5373-3.4773,2.2482-3.9463l29.6244-8.1225c1.7053-.4687,3.4769.537,3.9459,2.2479.469,1.7106-.5373,3.4773-2.2482,3.9463l-29.6244,8.1225c-.2836.0781-.5694.115-.8509.115Z"
               id="path108" />
          </g>
          <g
             id="g110">
            <line
               class="s"
               x1="540.0054"
               y1="158.8023"
               x2="569.6301"
               y2="150.6796"
               id="line109" />
            <path
               class="s"
               d="m540.0035,162.0144c-1.4106,0-2.704-.9367-3.095-2.3629-.469-1.7106.5373-3.4773,2.2475-3.9463l29.6244-8.1229c1.7081-.4701,3.4776.537,3.9466,2.2479.469,1.7106-.5373,3.4773-2.2475,3.9463l-29.6244,8.1229c-.2843.0781-.5701.115-.8516.115Z"
               id="path109" />
          </g>
        </g>
      </g>
      <path
         class="s"
         d="m552.2482,144.9087l-12.2766-.0198c-.2948-.003-.5797-.0459-.8505-.1231-1.3564-.3872-2.3431-1.6429-2.3276-3.1217.0185-1.7736,1.4711-3.1962,3.2444-3.1778l12.2474-.0002.0154-11.0118c.0168-1.7715,1.4708-3.1967,3.2448-3.1781,1.7736.0185,3.1962,1.4711,3.1778,3.2444v14.205c0,1.7579-1.4251,3.183-3.183,3.183h-3.292Z"
         id="path112" />
      <path
         class="s"
         d="m557.3874,301.7751l12.2766.0198c.2948.003.5797.0459.8505.1231,1.3564.3872,2.3431,1.6429,2.3276,3.1217-.0185,1.7736-1.4711,3.1962-3.2444,3.1778l-12.2474.0002-.0154,14.2563c-.0168,1.7715-1.4708,3.1967-3.2448,3.1781-1.7736-.0185-3.1962-1.4711-3.1778-3.2444v-17.4496c0-1.7579,1.4251-3.183,3.183-3.183h3.292Z"
         id="path113" />
    </g>
    <g
       id="g136">
      <g
         id="g135">
        <g
           class="ab"
           id="g123">
          <path
             class="t"
             d="m355.4699,274.1506c-.2446,0-.4927-.0279-.7408-.0868l-34.3-8.1023c-1.7263-.4077-2.7953-2.1374-2.3876-3.8637.4077-1.7266,2.1395-2.7957,3.8637-2.3869l34.3,8.1023c1.7263.4077,2.7953,2.1374,2.3876,3.8637-.3492,1.4778-1.6677,2.4737-3.1229,2.4737Z"
             id="path114" />
          <path
             class="t"
             d="m355.4699,260.7085c-.2446,0-.4927-.0279-.7408-.0868l-34.3-8.1023c-1.7263-.4077-2.7953-2.1374-2.3876-3.8637.4077-1.7263,2.1395-2.7971,3.8637-2.3869l34.3,8.1023c1.7263.4077,2.7953,2.1374,2.3876,3.8637-.3492,1.4778-1.6677,2.4737-3.1229,2.4737Z"
             id="path115" />
          <path
             class="t"
             d="m355.4699,247.2664c-.2446,0-.4927-.0279-.7408-.0868l-34.3-8.1023c-1.7263-.4077-2.7953-2.1374-2.3876-3.8637.4077-1.7266,2.1395-2.7957,3.8637-2.3869l34.3,8.1023c1.7263.4077,2.7953,2.1374,2.3876,3.8637-.3492,1.4778-1.6677,2.4737-3.1229,2.4737Z"
             id="path116" />
          <path
             class="t"
             d="m355.4699,233.8244c-.2446,0-.4927-.0279-.7408-.0868l-34.3-8.1023c-1.7263-.4077-2.7953-2.1374-2.3876-3.8637.4077-1.7263,2.1395-2.7967,3.8637-2.3869l34.3,8.1023c1.7263.4077,2.7953,2.1374,2.3876,3.8637-.3492,1.4778-1.6677,2.4737-3.1229,2.4737Z"
             id="path117" />
          <path
             class="t"
             d="m355.4699,220.3823c-.2446,0-.4927-.0279-.7408-.0868l-34.3-8.1023c-1.7263-.4077-2.7953-2.1374-2.3876-3.8637.4077-1.7263,2.1395-2.7981,3.8637-2.3869l34.3,8.1023c1.7263.4077,2.7953,2.1374,2.3876,3.8637-.3492,1.4778-1.6677,2.4737-3.1229,2.4737Z"
             id="path118" />
          <path
             class="t"
             d="m355.4699,206.9402c-.2446,0-.4927-.0279-.7408-.0868l-34.3-8.1023c-1.7263-.4077-2.7953-2.1374-2.3876-3.8637.4077-1.7263,2.1395-2.7967,3.8637-2.3869l34.3,8.1023c1.7263.4077,2.7953,2.1374,2.3876,3.8637-.3492,1.4778-1.6677,2.4737-3.1229,2.4737Z"
             id="path119" />
          <path
             class="t"
             d="m355.4699,193.4984c-.2446,0-.4927-.0282-.7408-.0868l-34.3-8.1027c-1.7263-.4077-2.7953-2.1374-2.3876-3.8637.4077-1.7266,2.1395-2.7953,3.8637-2.3869l34.3,8.1027c1.7263.4077,2.7953,2.1374,2.3876,3.8637-.3492,1.4778-1.6677,2.4737-3.1229,2.4737Z"
             id="path120" />
          <path
             class="t"
             d="m355.4699,180.0564c-.2446,0-.4927-.0282-.7408-.0868l-34.3-8.1027c-1.7263-.4077-2.7953-2.1374-2.3876-3.8637.4077-1.7263,2.1395-2.7943,3.8637-2.3869l34.3,8.1027c1.7263.4077,2.7953,2.1374,2.3876,3.8637-.3492,1.4778-1.6677,2.4737-3.1229,2.4737Z"
             id="path121" />
          <path
             class="t"
             d="m355.4699,166.6143c-.2446,0-.4927-.0282-.7408-.0868l-34.3-8.1027c-1.7263-.4077-2.7953-2.1374-2.3876-3.8637.4077-1.7263,2.1395-2.7953,3.8637-2.3869l34.3,8.1027c1.7263.4077,2.7953,2.1374,2.3876,3.8637-.3492,1.4778-1.6677,2.4737-3.1229,2.4737Z"
             id="path122" />
          <path
             class="t"
             d="m355.4699,153.1722c-.2446,0-.4927-.0282-.7408-.0868l-34.3-8.1027c-1.7263-.4077-2.7953-2.1374-2.3876-3.8637.4077-1.7263,2.1395-2.7939,3.8637-2.3869l34.3,8.1027c1.7263.4077,2.7953,2.1374,2.3876,3.8637-.3492,1.4778-1.6677,2.4737-3.1229,2.4737Z"
             id="path123" />
        </g>
        <g
           id="g134">
          <path
             class="t"
             d="m355.6678,267.901l-17.2992.0615c-.4475.0007-.8729.094-1.2597.2601-1.1596.4868-1.9744,1.6335-1.9707,2.9669l.0616,11.5023c.0028,1.7731,1.4432,3.2089,3.2171,3.2054,1.6039-.0028,2.9316-1.1812,3.1683-2.7186.0249-.1626.0379-.3291.0372-.4985l-.0559-8.3063,14.1129-.0502c1.7731-.0029,3.209-1.4432,3.2055-3.2171-.0029-1.7731-1.4466-3.2105-3.2172-3.2054Z"
             id="path124" />
          <g
             id="g125">
            <line
               class="t"
               x1="321.1669"
               y1="262.8362"
               x2="355.4672"
               y2="257.4966"
               id="line124" />
            <path
               class="t"
               d="m321.1629,266.0479c-1.5555,0-2.9222-1.1325-3.1689-2.7176-.2732-1.7527.9269-3.3943,2.6789-3.6672l34.3-5.3398c1.7493-.2728,3.3947.9262,3.6672,2.6789.2732,1.7527-.9269,3.3943-2.6789,3.6672l-34.3,5.3398c-.1673.0261-.3338.0387-.4983.0387Z"
               id="path125" />
          </g>
          <g
             id="g126">
            <line
               class="t"
               x1="321.1669"
               y1="249.3942"
               x2="355.4672"
               y2="244.0545"
               id="line125" />
            <path
               class="t"
               d="m321.1629,252.6058c-1.5555,0-2.9222-1.1325-3.1689-2.7176-.2732-1.7527.9269-3.3943,2.6789-3.6672l34.3-5.3398c1.7493-.2739,3.3947.9262,3.6672,2.6789.2732,1.7527-.9269,3.3943-2.6789,3.6672l-34.3,5.3398c-.1673.0261-.3338.0387-.4983.0387Z"
               id="path126" />
          </g>
          <g
             id="g127">
            <line
               class="t"
               x1="321.1669"
               y1="235.9521"
               x2="355.4672"
               y2="230.6124"
               id="line126" />
            <path
               class="t"
               d="m321.1629,239.1638c-1.5555,0-2.9222-1.1325-3.1689-2.7176-.2732-1.7527.9269-3.3943,2.6789-3.6672l34.3-5.3398c1.7493-.2746,3.3947.9259,3.6672,2.6789.2732,1.7527-.9269,3.3943-2.6789,3.6672l-34.3,5.3398c-.1673.0261-.3338.0387-.4983.0387Z"
               id="path127" />
          </g>
          <g
             id="g128">
            <line
               class="t"
               x1="321.1669"
               y1="222.51"
               x2="355.4672"
               y2="217.1703"
               id="line127" />
            <path
               class="t"
               d="m321.1629,225.7217c-1.5555,0-2.9222-1.1325-3.1689-2.7176-.2732-1.7527.9269-3.3943,2.6789-3.6672l34.3-5.3398c1.7493-.2753,3.3947.9259,3.6672,2.6789.2732,1.7527-.9269,3.3943-2.6789,3.6672l-34.3,5.3398c-.1673.0261-.3338.0387-.4983.0387Z"
               id="path128" />
          </g>
          <g
             id="g129">
            <line
               class="t"
               x1="321.1669"
               y1="209.0679"
               x2="355.4672"
               y2="203.7283"
               id="line128" />
            <path
               class="t"
               d="m321.1629,212.2796c-1.5555,0-2.9222-1.1325-3.1689-2.7176-.2732-1.7527.9269-3.3943,2.6789-3.6672l34.3-5.3398c1.7493-.276,3.3947.9262,3.6672,2.6789.2732,1.7527-.9269,3.3943-2.6789,3.6672l-34.3,5.3398c-.1673.0261-.3338.0387-.4983.0387Z"
               id="path129" />
          </g>
          <g
             id="g130">
            <line
               class="t"
               x1="321.1669"
               y1="195.6259"
               x2="355.4672"
               y2="190.2862"
               id="line129" />
            <path
               class="t"
               d="m321.1629,198.8375c-1.5555,0-2.9222-1.1325-3.1689-2.7176-.2732-1.7527.9269-3.3943,2.6789-3.6672l34.3-5.3394c1.7493-.2735,3.3947.9262,3.6672,2.6789.2732,1.7527-.9269,3.3943-2.6789,3.6672l-34.3,5.3394c-.1673.0261-.3338.0387-.4983.0387Z"
               id="path130" />
          </g>
          <g
             id="g131">
            <line
               class="t"
               x1="321.1669"
               y1="182.1838"
               x2="355.4672"
               y2="176.8441"
               id="line130" />
            <path
               class="t"
               d="m321.1629,185.3954c-1.5555,0-2.9222-1.1325-3.1689-2.7176-.2732-1.7527.9269-3.3943,2.6789-3.6672l34.3-5.3394c1.7493-.2742,3.3947.9262,3.6672,2.6789.2732,1.7527-.9269,3.3943-2.6789,3.6672l-34.3,5.3394c-.1673.0261-.3338.0387-.4983.0387Z"
               id="path131" />
          </g>
          <g
             id="g132">
            <line
               class="t"
               x1="321.1669"
               y1="168.7417"
               x2="355.4672"
               y2="163.4021"
               id="line131" />
            <path
               class="t"
               d="m321.1629,171.9533c-1.5555,0-2.9222-1.1325-3.1689-2.7176-.2732-1.7527.9269-3.3943,2.6789-3.6672l34.3-5.3394c1.7493-.2749,3.3947.9259,3.6672,2.6789.2732,1.7527-.9269,3.3943-2.6789,3.6672l-34.3,5.3394c-.1673.0261-.3338.0387-.4983.0387Z"
               id="path132" />
          </g>
          <g
             id="g133">
            <line
               class="t"
               x1="321.1669"
               y1="155.2997"
               x2="355.4672"
               y2="149.96"
               id="line132" />
            <path
               class="t"
               d="m321.1629,158.5113c-1.5555,0-2.9222-1.1325-3.1689-2.7176-.2732-1.7527.9269-3.3943,2.6789-3.6672l34.3-5.3394c1.7493-.2756,3.3947.9262,3.6672,2.6789.2732,1.7527-.9269,3.3943-2.6789,3.6672l-34.3,5.3394c-.1673.0261-.3338.0387-.4983.0387Z"
               id="path133" />
          </g>
        </g>
      </g>
      <path
         class="t"
         d="m333.4101,145.0279l-12.2766-.0198c-.2948-.003-.5797-.0459-.8505-.1231-1.3564-.3872-2.3431-1.6429-2.3276-3.1217.0185-1.7736,1.4711-3.1962,3.2444-3.1778l12.2474-.0002.0154-11.0118c.0168-1.7715,1.4708-3.1967,3.2448-3.1781,1.7736.0185,3.1962,1.4711,3.1778,3.2444v14.205c0,1.7579-1.4251,3.183-3.183,3.183h-3.292Z"
         id="path135" />
    </g>
    <g
       id="g138">
      <line
         class="n"
         x1="57.619"
         y1="342.7054"
         x2="62.619"
         y2="342.7054"
         id="line136" />
      <line
         class="q"
         x1="72.6998"
         y1="342.7054"
         x2="853.9596"
         y2="342.7047"
         id="line137" />
      <line
         class="n"
         x1="859"
         y1="342.7047"
         x2="864"
         y2="342.7047"
         id="line138" />
    </g>
    <g
       id="g141">
      <line
         class="n"
         x1="272.9133"
         y1="382.2399"
         x2="277.9133"
         y2="382.2399"
         id="line139" />
      <line
         class="r"
         x1="290.2329"
         y1="382.2399"
         x2="308.7122"
         y2="382.2399"
         id="line140" />
      <line
         class="n"
         x1="314.8719"
         y1="382.2399"
         x2="319.8719"
         y2="382.2399"
         id="line141" />
    </g>
    <g
       id="g144">
      <line
         class="n"
         x1="481.4659"
         y1="421.2476"
         x2="486.4659"
         y2="421.2476"
         id="line142" />
      <line
         class="m"
         x1="495.4453"
         y1="421.2476"
         x2="526.8733"
         y2="421.2476"
         id="line143" />
      <line
         class="n"
         x1="531.3629"
         y1="421.2476"
         x2="536.3629"
         y2="421.2476"
         id="line144" />
    </g>
    <g
       id="g147">
      <line
         class="n"
         x1="703.5377"
         y1="380.573"
         x2="708.5377"
         y2="380.573"
         id="line145" />
      <line
         class="p"
         x1="716.3979"
         y1="380.573"
         x2="743.9086"
         y2="380.573"
         id="line146" />
      <line
         class="n"
         x1="747.8387"
         y1="380.573"
         x2="752.8387"
         y2="380.573"
         id="line147" />
    </g>
    <g
       id="g170">
      <g
         id="g169">
        <g
           id="g168">
          <g
             id="g158">
            <g
               class="ab"
               id="g148">
              <path
                 class="y"
                 d="m138.7494,235.4461c-.1878,0-.3781-.0167-.569-.0509l-31.7702-5.6812c-1.7461-.3122-2.9082-1.9806-2.596-3.7264.3122-1.7461,1.9848-2.9044,3.7264-2.596l31.7702,5.6812c1.7461.3122,2.9082,1.9806,2.596,3.7264-.2781,1.5548-1.6315,2.6469-3.1574,2.6469Z"
                 id="path147" />
            </g>
            <g
               class="ab"
               id="g149">
              <path
                 class="y"
                 d="m138.7494,226.0723c-.1878,0-.3777-.0167-.569-.0509l-31.7702-5.6816c-1.7461-.3122-2.9082-1.9806-2.596-3.7264.3122-1.7461,1.9817-2.9065,3.7264-2.596l31.7702,5.6816c1.7461.3122,2.9082,1.9806,2.596,3.7264-.2781,1.5548-1.6315,2.6469-3.1574,2.6469Z"
                 id="path148" />
            </g>
            <g
               class="ab"
               id="g150">
              <path
                 class="y"
                 d="m138.7494,216.6981c-.1878,0-.3777-.0167-.569-.0509l-31.7702-5.6816c-1.7461-.3122-2.9082-1.9806-2.596-3.7264.3122-1.7461,1.9817-2.9051,3.7264-2.596l31.7702,5.6816c1.7461.3122,2.9082,1.9806,2.596,3.7264-.2781,1.5548-1.6315,2.6469-3.1574,2.6469Z"
                 id="path149" />
            </g>
            <g
               class="ab"
               id="g151">
              <path
                 class="y"
                 d="m138.7494,207.3239c-.1878,0-.3777-.0167-.569-.0509l-31.7702-5.6816c-1.7461-.3122-2.9082-1.9806-2.596-3.7264s1.9817-2.9072,3.7264-2.596l31.7702,5.6816c1.7461.3122,2.9082,1.9806,2.596,3.7264-.2781,1.5548-1.6315,2.6469-3.1574,2.6469Z"
                 id="path150" />
            </g>
            <g
               class="ab"
               id="g152">
              <path
                 class="y"
                 d="m138.7494,197.9501c-.1878,0-.3777-.0167-.569-.0509l-31.7702-5.6816c-1.7461-.3122-2.9082-1.9806-2.596-3.7264.3122-1.7461,1.9817-2.9061,3.7264-2.596l31.7702,5.6816c1.7461.3122,2.9082,1.9806,2.596,3.7264-.2781,1.5548-1.6315,2.6469-3.1574,2.6469Z"
                 id="path151" />
            </g>
            <g
               class="ab"
               id="g153">
              <path
                 class="y"
                 d="m138.7494,188.5759c-.1878,0-.3777-.0167-.569-.0509l-31.7702-5.6816c-1.7461-.3122-2.9082-1.9806-2.596-3.7264.3122-1.7461,1.9817-2.9051,3.7264-2.596l31.7702,5.6816c1.7461.3122,2.9082,1.9806,2.596,3.7264-.2781,1.5548-1.6315,2.6469-3.1574,2.6469Z"
                 id="path152" />
            </g>
            <g
               class="ab"
               id="g154">
              <path
                 class="y"
                 d="m138.7494,179.2017c-.1878,0-.3777-.0167-.569-.0509l-31.7702-5.6816c-1.7461-.3122-2.9082-1.9806-2.596-3.7264s1.9817-2.9068,3.7264-2.596l31.7702,5.6816c1.7461.3122,2.9082,1.9806,2.596,3.7264-.2781,1.5548-1.6315,2.6469-3.1574,2.6469Z"
                 id="path153" />
            </g>
            <g
               class="ab"
               id="g155">
              <path
                 class="y"
                 d="m138.7494,169.8275c-.1878,0-.3781-.0167-.569-.0509l-31.7702-5.6812c-1.7461-.3122-2.9082-1.9806-2.596-3.7264.3122-1.7461,1.9848-2.9061,3.7264-2.596l31.7702,5.6812c1.7461.3122,2.9082,1.9806,2.596,3.7264-.2781,1.5548-1.6315,2.6469-3.1574,2.6469Z"
                 id="path154" />
            </g>
            <g
               class="ab"
               id="g156">
              <path
                 class="y"
                 d="m138.7494,160.4536c-.1878,0-.3777-.0167-.569-.0509l-31.7702-5.6816c-1.7461-.3122-2.9082-1.9806-2.596-3.7264.3122-1.7461,1.9817-2.9047,3.7264-2.596l31.7702,5.6816c1.7461.3122,2.9082,1.9806,2.596,3.7264-.2781,1.5548-1.6315,2.6469-3.1574,2.6469Z"
                 id="path155" />
            </g>
            <g
               class="ab"
               id="g157">
              <path
                 class="y"
                 d="m138.7494,151.0794c-.1878,0-.3777-.0167-.569-.0509l-31.7702-5.6816c-1.7461-.3122-2.9082-1.9806-2.596-3.7264s1.9817-2.9068,3.7264-2.596l31.7702,5.6816c1.7461.3122,2.9082,1.9806,2.596,3.7264-.2781,1.5548-1.6315,2.6469-3.1574,2.6469Z"
                 id="path156" />
            </g>
          </g>
          <g
             id="g167">
            <g
               id="g159">
              <line
                 class="y"
                 x1="106.9754"
                 y1="226.5527"
                 x2="138.7456"
                 y2="222.8601"
                 id="line158" />
              <path
                 class="y"
                 d="m106.9712,229.7645c-1.6078,0-2.9957-1.2053-3.1856-2.841-.2049-1.7618,1.0572-3.356,2.819-3.5605l31.7702-3.6926c1.7597-.2014,3.3563,1.0576,3.5605,2.819.2049,1.7618-1.0572,3.356-2.819,3.5605l-31.7702,3.6926c-.1258.0146-.2509.022-.3749.022Z"
                 id="path158" />
            </g>
            <path
               class="y"
               d="m106.9712,220.3903c-1.5994,0-2.9845-1.1938-3.1835-2.8222-.2153-1.7604,1.0374-3.3619,2.7978-3.5773l31.7704-3.6682c1.759-.2143,3.3626,1.0374,3.5776,2.7981.2153,1.7604-1.0374,3.3619-2.7978,3.5773l-31.7704,3.6682c-.1324.016-.2641.024-.3941.024Z"
               id="path159" />
            <g
               id="g160">
              <line
                 class="y"
                 x1="106.9754"
                 y1="207.8045"
                 x2="138.7456"
                 y2="204.1119"
                 id="line159" />
              <path
                 class="y"
                 d="m106.9712,211.0162c-1.6078,0-2.9957-1.2053-3.1856-2.841-.2049-1.7618,1.0572-3.356,2.819-3.5605l31.7702-3.6926c1.7597-.2018,3.3563,1.0576,3.5605,2.819.2049,1.7618-1.0572,3.356-2.819,3.5605l-31.7702,3.6926c-.1258.0146-.2509.022-.3749.022Z"
                 id="path160" />
            </g>
            <g
               id="g161">
              <line
                 class="y"
                 x1="106.9754"
                 y1="198.4304"
                 x2="138.7456"
                 y2="194.7378"
                 id="line160" />
              <path
                 class="y"
                 d="m106.9715,201.642c-1.6081,0-2.996-1.205-3.1859-2.841-.2049-1.7618,1.0572-3.356,2.819-3.5605l31.7702-3.6923c1.7632-.2059,3.356,1.0576,3.5605,2.819.2049,1.7618-1.0572,3.356-2.819,3.5605l-31.7702,3.6923c-.1258.0146-.2512.022-.3746.022Z"
                 id="path161" />
            </g>
            <g
               id="g162">
              <line
                 class="y"
                 x1="106.9754"
                 y1="189.0563"
                 x2="138.7456"
                 y2="185.3637"
                 id="line161" />
              <path
                 class="y"
                 d="m106.9715,192.2681c-1.6078,0-2.996-1.2053-3.1859-2.841-.2049-1.7618,1.0572-3.356,2.819-3.5605l31.7702-3.6926c1.7531-.2073,3.356,1.0572,3.5605,2.819.2049,1.7618-1.0572,3.356-2.819,3.5605l-31.7702,3.6926c-.1258.0146-.2509.022-.3746.022Z"
                 id="path162" />
            </g>
            <g
               id="g163">
              <line
                 class="y"
                 x1="106.9754"
                 y1="179.6822"
                 x2="138.7456"
                 y2="175.9896"
                 id="line162" />
              <path
                 class="y"
                 d="m106.9715,182.8939c-1.6078,0-2.996-1.2053-3.1859-2.841-.2049-1.7618,1.0572-3.356,2.819-3.5605l31.7702-3.6926c1.7531-.2073,3.356,1.0572,3.5605,2.819.2049,1.7618-1.0572,3.356-2.819,3.5605l-31.7702,3.6926c-.1258.0146-.2509.022-.3746.022Z"
                 id="path163" />
            </g>
            <g
               id="g164">
              <line
                 class="y"
                 x1="106.9754"
                 y1="170.3081"
                 x2="138.7456"
                 y2="166.6155"
                 id="line163" />
              <path
                 class="y"
                 d="m106.9715,173.5197c-1.6078,0-2.996-1.2053-3.1859-2.841-.2049-1.7618,1.0572-3.356,2.819-3.5605l31.7702-3.6926c1.7531-.2073,3.356,1.0572,3.5605,2.819.2049,1.7618-1.0572,3.356-2.819,3.5605l-31.7702,3.6926c-.1258.0146-.2509.022-.3746.022Z"
                 id="path164" />
            </g>
            <g
               id="g165">
              <line
                 class="y"
                 x1="106.9754"
                 y1="160.934"
                 x2="138.7456"
                 y2="157.2414"
                 id="line164" />
              <path
                 class="y"
                 d="m106.9712,164.1459c-1.6078,0-2.9957-1.2053-3.1856-2.841-.2049-1.7618,1.0572-3.356,2.819-3.5605l31.7702-3.6926c1.7597-.2035,3.3563,1.0576,3.5605,2.819.2049,1.7618-1.0572,3.356-2.819,3.5605l-31.7702,3.6926c-.1258.0146-.2509.022-.3749.022Z"
                 id="path165" />
            </g>
            <g
               id="g166">
              <line
                 class="y"
                 x1="106.9754"
                 y1="151.5599"
                 x2="138.7456"
                 y2="147.8673"
                 id="line165" />
              <path
                 class="y"
                 d="m106.9712,154.7717c-1.6078,0-2.9957-1.2053-3.1856-2.841-.2049-1.7618,1.0572-3.356,2.819-3.5605l31.7702-3.6926c1.7597-.2035,3.3563,1.0576,3.5605,2.819.2049,1.7618-1.0572,3.356-2.819,3.5605l-31.7702,3.6926c-.1258.0146-.2509.022-.3749.022Z"
                 id="path166" />
            </g>
          </g>
        </g>
        <path
           class="y"
           d="m119.2187,145.3857l-12.2766-.0198c-.2948-.003-.5797-.0459-.8505-.1231-1.3564-.3872-2.3431-1.6429-2.3276-3.1217.0185-1.7736,1.4711-3.1962,3.2444-3.1778l12.2474-.0002.0153-11.0118c.0168-1.7715,1.4708-3.1967,3.2448-3.1781,1.7736.0185,3.1962,1.4711,3.1778,3.2444v14.205c0,1.7579-1.4251,3.183-3.183,3.183h-3.292Z"
           id="path168" />
      </g>
      <path
         class="y"
         d="m138.74,229.0338l-17.2992.0615c-.4475.0007-.8729.094-1.2597.2601-1.1596.4868-1.9744,1.6335-1.9707,2.9669l.0616,11.5023c.0028,1.7731,1.4432,3.2089,3.2171,3.2054,1.6039-.0028,2.9316-1.1812,3.1683-2.7186.0249-.1626.0379-.3291.0372-.4985l-.0559-8.3063,14.1129-.0502c1.7731-.0029,3.209-1.4432,3.2055-3.2171-.0029-1.7731-1.4466-3.2105-3.2172-3.2054Z"
         id="path169" />
    </g>
    <path
       class="s"
       d="m554.6129,414.8175c-.1168-.0127-.2307-.0351-.351-.035-1.5518.0015-2.8326,1.1068-3.1332,2.5694-.0051.0235-.0102.0467-.0148.0704-.0125.0686-.0347.1337-.0428.2038-.0143.1234-.0213.2487-.0211.3755l.0314,7.7549c-6.7221,1.5171-11.6897,7.6641-11.3559,14.9181.3421,7.4323,6.4579,13.5479,13.8902,13.8897,7.1645.3294,13.2575-4.5091,14.8681-11.105.4327-1.7721-.9532-3.4743-2.7773-3.4743h-.231c-1.2774,0-2.3288.9077-2.6406,2.1464-.9802,3.894-4.564,6.7648-8.7844,6.6451-4.585-.13-8.407-3.9519-8.5373-8.5369-.1407-4.955,3.8409-9.031,8.7609-9.0481.0105.0001.0202.003.0307.003,1.7755-.0014,3.2129-1.4453,3.2119-3.2191l-.0321-6.7334"
       id="path170" />
    <path
       class="t"
       d="m338.3387,376.0162c-.1168-.0127-.2307-.0351-.351-.035-1.5518.0015-2.8326,1.1068-3.1332,2.5694-.0051.0235-.0102.0467-.0148.0704-.0125.0686-.0347.1337-.0428.2038-.0143.1234-.0213.2487-.0211.3755l.0314,7.7549c-6.7221,1.5171-11.6897,7.6641-11.3559,14.9181.3421,7.4323,6.4579,13.5479,13.8902,13.8897,7.1645.3294,13.2575-4.5091,14.8681-11.105.4327-1.7721-.9532-3.4743-2.7773-3.4743h-.231c-1.2774,0-2.3288.9077-2.6406,2.1464-.9802,3.894-4.564,6.7648-8.7844,6.6451-4.585-.13-8.407-3.9519-8.5373-8.5369-.1407-4.955,3.8409-9.031,8.7609-9.0481.0105.0001.0202.003.0307.003,1.7755-.0014,3.2129-1.4453,3.2119-3.2191l-.0321-6.7334"
       id="path171" />
    <path
       class="y"
       d="m121.9655,336.1743c-.1168-.0127-.2307-.0351-.351-.035-1.5518.0015-2.8326,1.1068-3.1332,2.5694-.0051.0235-.0102.0467-.0148.0704-.0125.0686-.0347.1337-.0428.2038-.0143.1234-.0213.2487-.0211.3755l.0314,7.7549c-6.7221,1.5171-11.6897,7.6641-11.3559,14.9181.3421,7.4323,6.4579,13.5479,13.8902,13.8897,7.1645.3294,13.2575-4.5091,14.8681-11.105.4327-1.7721-.9532-3.4743-2.7773-3.4743h-.231c-1.2774,0-2.3288.9077-2.6406,2.1464-.9802,3.894-4.564,6.7648-8.7844,6.6451-4.585-.13-8.407-3.9519-8.5373-8.5369-.1407-4.955,3.8409-9.031,8.7609-9.0481.0105.0001.0202.003.0307.003,1.7755-.0014,3.2129-1.4453,3.2119-3.2191l-.0321-6.7334"
       id="path172" />
    <path
       class="t"
       d="m771.3273,374.084c-.1168-.0127-.2307-.0351-.351-.035-1.5518.0015-2.8326,1.1068-3.1332,2.5694-.0051.0235-.0102.0467-.0148.0704-.0125.0686-.0347.1337-.0428.2038-.0143.1234-.0213.2487-.0211.3755l.0314,7.7549c-6.7221,1.5171-11.6897,7.6641-11.3559,14.9181.3421,7.4323,6.4579,13.5479,13.8902,13.8897,7.1645.3294,13.2575-4.5091,14.8681-11.105.4327-1.7721-.9532-3.4743-2.7773-3.4743h-.231c-1.2774,0-2.3288.9077-2.6406,2.1464-.9802,3.894-4.564,6.7648-8.7844,6.6451-4.585-.13-8.407-3.9519-8.5373-8.5369-.1407-4.955,3.8409-9.031,8.7609-9.0481.0105.0001.0202.003.0307.003,1.7755-.0014,3.2129-1.4453,3.2119-3.2191l-.0321-6.7334"
       id="path173" />
    <g
       id="g218">
      <g
         id="g194">
        <g
           class="ab"
           id="g183">
          <path
             class="t"
             d="m751.2195,273.8896c-.2446,0-.4927-.0279-.7408-.0868l-34.3-8.1023c-1.7263-.4077-2.7953-2.1374-2.3876-3.8637.4077-1.7266,2.1395-2.7957,3.8637-2.3869l34.3,8.1023c1.7263.4077,2.7953,2.1374,2.3876,3.8637-.3492,1.4778-1.6677,2.4737-3.1229,2.4737Z"
             id="path174" />
          <path
             class="t"
             d="m751.2195,260.4475c-.2446,0-.4927-.0279-.7408-.0868l-34.3-8.1023c-1.7263-.4077-2.7953-2.1374-2.3876-3.8637.4077-1.7263,2.1395-2.7971,3.8637-2.3869l34.3,8.1023c1.7263.4077,2.7953,2.1374,2.3876,3.8637-.3492,1.4778-1.6677,2.4737-3.1229,2.4737Z"
             id="path175" />
          <path
             class="t"
             d="m751.2195,247.0055c-.2446,0-.4927-.0279-.7408-.0868l-34.3-8.1023c-1.7263-.4077-2.7953-2.1374-2.3876-3.8637.4077-1.7266,2.1395-2.7957,3.8637-2.3869l34.3,8.1023c1.7263.4077,2.7953,2.1374,2.3876,3.8637-.3492,1.4778-1.6677,2.4737-3.1229,2.4737Z"
             id="path176" />
          <path
             class="t"
             d="m751.2195,233.5634c-.2446,0-.4927-.0279-.7408-.0868l-34.3-8.1023c-1.7263-.4077-2.7953-2.1374-2.3876-3.8637.4077-1.7263,2.1395-2.7967,3.8637-2.3869l34.3,8.1023c1.7263.4077,2.7953,2.1374,2.3876,3.8637-.3492,1.4778-1.6677,2.4737-3.1229,2.4737Z"
             id="path177" />
          <path
             class="t"
             d="m751.2195,220.1213c-.2446,0-.4927-.0279-.7408-.0868l-34.3-8.1023c-1.7263-.4077-2.7953-2.1374-2.3876-3.8637.4077-1.7263,2.1395-2.7981,3.8637-2.3869l34.3,8.1023c1.7263.4077,2.7953,2.1374,2.3876,3.8637-.3492,1.4778-1.6677,2.4737-3.1229,2.4737Z"
             id="path178" />
          <path
             class="t"
             d="m751.2195,206.6792c-.2446,0-.4927-.0279-.7408-.0868l-34.3-8.1023c-1.7263-.4077-2.7953-2.1374-2.3876-3.8637.4077-1.7263,2.1395-2.7967,3.8637-2.3869l34.3,8.1023c1.7263.4077,2.7953,2.1374,2.3876,3.8637-.3492,1.4778-1.6677,2.4737-3.1229,2.4737Z"
             id="path179" />
          <path
             class="t"
             d="m751.2195,193.2375c-.2446,0-.4927-.0282-.7408-.0868l-34.3-8.1027c-1.7263-.4077-2.7953-2.1374-2.3876-3.8637.4077-1.7266,2.1395-2.7953,3.8637-2.3869l34.3,8.1027c1.7263.4077,2.7953,2.1374,2.3876,3.8637-.3492,1.4778-1.6677,2.4737-3.1229,2.4737Z"
             id="path180" />
          <path
             class="t"
             d="m751.2195,179.7954c-.2446,0-.4927-.0282-.7408-.0868l-34.3-8.1027c-1.7263-.4077-2.7953-2.1374-2.3876-3.8637.4077-1.7263,2.1395-2.7943,3.8637-2.3869l34.3,8.1027c1.7263.4077,2.7953,2.1374,2.3876,3.8637-.3492,1.4778-1.6677,2.4737-3.1229,2.4737Z"
             id="path181" />
          <path
             class="t"
             d="m751.2195,166.3533c-.2446,0-.4927-.0282-.7408-.0868l-34.3-8.1027c-1.7263-.4077-2.7953-2.1374-2.3876-3.8637.4077-1.7263,2.1395-2.7953,3.8637-2.3869l34.3,8.1027c1.7263.4077,2.7953,2.1374,2.3876,3.8637-.3492,1.4778-1.6677,2.4737-3.1229,2.4737Z"
             id="path182" />
          <path
             class="t"
             d="m751.2195,152.9112c-.2446,0-.4927-.0282-.7408-.0868l-34.3-8.1027c-1.7263-.4077-2.7953-2.1374-2.3876-3.8637.4077-1.7263,2.1395-2.7939,3.8637-2.3869l34.3,8.1027c1.7263.4077,2.7953,2.1374,2.3876,3.8637-.3492,1.4778-1.6677,2.4737-3.1229,2.4737Z"
             id="path183" />
        </g>
        <g
           id="g193">
          <g
             id="g184">
            <line
               class="t"
               x1="716.9166"
               y1="262.5752"
               x2="751.2169"
               y2="257.2356"
               id="line183" />
            <path
               class="t"
               d="m716.9125,265.787c-1.5555,0-2.9222-1.1325-3.1689-2.7176-.2732-1.7527.9269-3.3943,2.6789-3.6672l34.3-5.3398c1.7493-.2728,3.3947.9262,3.6672,2.6789.2732,1.7527-.9269,3.3943-2.6789,3.6672l-34.3,5.3398c-.1673.0261-.3338.0387-.4983.0387Z"
               id="path184" />
          </g>
          <g
             id="g185">
            <line
               class="t"
               x1="716.9166"
               y1="249.1332"
               x2="751.2169"
               y2="243.7935"
               id="line184" />
            <path
               class="t"
               d="m716.9125,252.3449c-1.5555,0-2.9222-1.1325-3.1689-2.7176-.2732-1.7527.9269-3.3943,2.6789-3.6672l34.3-5.3398c1.7493-.2739,3.3947.9262,3.6672,2.6789.2732,1.7527-.9269,3.3943-2.6789,3.6672l-34.3,5.3398c-.1673.0261-.3338.0387-.4983.0387Z"
               id="path185" />
          </g>
          <g
             id="g186">
            <line
               class="t"
               x1="716.9166"
               y1="235.6911"
               x2="751.2169"
               y2="230.3514"
               id="line185" />
            <path
               class="t"
               d="m716.9125,238.9028c-1.5555,0-2.9222-1.1325-3.1689-2.7176-.2732-1.7527.9269-3.3943,2.6789-3.6672l34.3-5.3398c1.7493-.2746,3.3947.9259,3.6672,2.6789.2732,1.7527-.9269,3.3943-2.6789,3.6672l-34.3,5.3398c-.1673.0261-.3338.0387-.4983.0387Z"
               id="path186" />
          </g>
          <g
             id="g187">
            <line
               class="t"
               x1="716.9166"
               y1="222.249"
               x2="751.2169"
               y2="216.9094"
               id="line186" />
            <path
               class="t"
               d="m716.9125,225.4607c-1.5555,0-2.9222-1.1325-3.1689-2.7176-.2732-1.7527.9269-3.3943,2.6789-3.6672l34.3-5.3398c1.7493-.2753,3.3947.9259,3.6672,2.6789.2732,1.7527-.9269,3.3943-2.6789,3.6672l-34.3,5.3398c-.1673.0261-.3338.0387-.4983.0387Z"
               id="path187" />
          </g>
          <g
             id="g188">
            <line
               class="t"
               x1="716.9166"
               y1="208.807"
               x2="751.2169"
               y2="203.4673"
               id="line187" />
            <path
               class="t"
               d="m716.9125,212.0186c-1.5555,0-2.9222-1.1325-3.1689-2.7176-.2732-1.7527.9269-3.3943,2.6789-3.6672l34.3-5.3398c1.7493-.276,3.3947.9262,3.6672,2.6789.2732,1.7527-.9269,3.3943-2.6789,3.6672l-34.3,5.3398c-.1673.0261-.3338.0387-.4983.0387Z"
               id="path188" />
          </g>
          <g
             id="g189">
            <line
               class="t"
               x1="716.9166"
               y1="195.3649"
               x2="751.2169"
               y2="190.0252"
               id="line188" />
            <path
               class="t"
               d="m716.9125,198.5765c-1.5555,0-2.9222-1.1325-3.1689-2.7176-.2732-1.7527.9269-3.3943,2.6789-3.6672l34.3-5.3394c1.7493-.2735,3.3947.9262,3.6672,2.6789.2732,1.7527-.9269,3.3943-2.6789,3.6672l-34.3,5.3394c-.1673.0261-.3338.0387-.4983.0387Z"
               id="path189" />
          </g>
          <g
             id="g190">
            <line
               class="t"
               x1="716.9166"
               y1="181.9228"
               x2="751.2169"
               y2="176.5832"
               id="line189" />
            <path
               class="t"
               d="m716.9125,185.1345c-1.5555,0-2.9222-1.1325-3.1689-2.7176-.2732-1.7527.9269-3.3943,2.6789-3.6672l34.3-5.3394c1.7493-.2742,3.3947.9262,3.6672,2.6789.2732,1.7527-.9269,3.3943-2.6789,3.6672l-34.3,5.3394c-.1673.0261-.3338.0387-.4983.0387Z"
               id="path190" />
          </g>
          <g
             id="g191">
            <line
               class="t"
               x1="716.9166"
               y1="168.4808"
               x2="751.2169"
               y2="163.1411"
               id="line190" />
            <path
               class="t"
               d="m716.9125,171.6924c-1.5555,0-2.9222-1.1325-3.1689-2.7176-.2732-1.7527.9269-3.3943,2.6789-3.6672l34.3-5.3394c1.7493-.2749,3.3947.9259,3.6672,2.6789.2732,1.7527-.9269,3.3943-2.6789,3.6672l-34.3,5.3394c-.1673.0261-.3338.0387-.4983.0387Z"
               id="path191" />
          </g>
          <g
             id="g192">
            <line
               class="t"
               x1="716.9166"
               y1="155.0387"
               x2="751.2169"
               y2="149.699"
               id="line191" />
            <path
               class="t"
               d="m716.9125,158.2503c-1.5555,0-2.9222-1.1325-3.1689-2.7176-.2732-1.7527.9269-3.3943,2.6789-3.6672l34.3-5.3394c1.7493-.2756,3.3947.9262,3.6672,2.6789.2732,1.7527-.9269,3.3943-2.6789,3.6672l-34.3,5.3394c-.1673.0261-.3338.0387-.4983.0387Z"
               id="path192" />
          </g>
          <path
             class="t"
             d="m755.2377,285.6937l-21.1747-.0503-.004-5.8591.004-5.8591,17.1655-.0502c1.7731-.0028,3.2091-1.4432,3.2056-3.2172-.0029-1.7729-1.4467-3.2104-3.2172-3.2053l-20.3519.0614c-.4475.0007-.8728.094-1.2595.2601-1.1597.4868-1.9744,1.6335-1.9707,2.9668v18.0869c-.0037,1.3334.811,2.48,1.9707,2.9668.3867.1663.812.2595,1.2595.2603l24.3611.0614c1.7705.005,3.2142-1.4324,3.2172-3.2054.0035-1.7739-1.4325-3.2142-3.2056-3.217Z"
             id="path193" />
        </g>
        <path
           class="t"
           d="m729.1598,144.7669l-12.2766-.0198c-.2948-.003-.5797-.0459-.8505-.1231-1.3564-.3872-2.3431-1.6429-2.3276-3.1217.0185-1.7736,1.4711-3.1962,3.2444-3.1778l12.2474-.0002.0154-11.0118c.0168-1.7715,1.4708-3.1967,3.2448-3.1781,1.7736.0185,3.1962,1.4711,3.1778,3.2444v14.205c0,1.7579-1.4251,3.183-3.183,3.183h-3.292Z"
           id="path194" />
      </g>
      <g
         id="g217">
        <g
           id="g216">
          <g
             id="g215">
            <g
               class="ab"
               id="g204">
              <path
                 class="t"
                 d="m789.2457,273.8896c.2446,0,.4927-.0279.7408-.0868l34.3-8.1023c1.7263-.4077,2.7953-2.1374,2.3876-3.8637-.4077-1.7266-2.1395-2.7957-3.8637-2.3869l-34.3,8.1023c-1.7263.4077-2.7953,2.1374-2.3876,3.8637.3492,1.4778,1.6677,2.4737,3.1229,2.4737Z"
                 id="path195" />
              <path
                 class="t"
                 d="m789.2457,260.4475c.2446,0,.4927-.0279.7408-.0868l34.3-8.1023c1.7263-.4077,2.7953-2.1374,2.3876-3.8637-.4077-1.7263-2.1395-2.7971-3.8637-2.3869l-34.3,8.1023c-1.7263.4077-2.7953,2.1374-2.3876,3.8637.3492,1.4778,1.6677,2.4737,3.1229,2.4737Z"
                 id="path196" />
              <path
                 class="t"
                 d="m789.2457,247.0055c.2446,0,.4927-.0279.7408-.0868l34.3-8.1023c1.7263-.4077,2.7953-2.1374,2.3876-3.8637-.4077-1.7266-2.1395-2.7957-3.8637-2.3869l-34.3,8.1023c-1.7263.4077-2.7953,2.1374-2.3876,3.8637.3492,1.4778,1.6677,2.4737,3.1229,2.4737Z"
                 id="path197" />
              <path
                 class="t"
                 d="m789.2457,233.5634c.2446,0,.4927-.0279.7408-.0868l34.3-8.1023c1.7263-.4077,2.7953-2.1374,2.3876-3.8637s-2.1395-2.7967-3.8637-2.3869l-34.3,8.1023c-1.7263.4077-2.7953,2.1374-2.3876,3.8637.3492,1.4778,1.6677,2.4737,3.1229,2.4737Z"
                 id="path198" />
              <path
                 class="t"
                 d="m789.2457,220.1213c.2446,0,.4927-.0279.7408-.0868l34.3-8.1023c1.7263-.4077,2.7953-2.1374,2.3876-3.8637-.4077-1.7263-2.1395-2.7981-3.8637-2.3869l-34.3,8.1023c-1.7263.4077-2.7953,2.1374-2.3876,3.8637.3492,1.4778,1.6677,2.4737,3.1229,2.4737Z"
                 id="path199" />
              <path
                 class="t"
                 d="m789.2457,206.6792c.2446,0,.4927-.0279.7408-.0868l34.3-8.1023c1.7263-.4077,2.7953-2.1374,2.3876-3.8637-.4077-1.7263-2.1395-2.7967-3.8637-2.3869l-34.3,8.1023c-1.7263.4077-2.7953,2.1374-2.3876,3.8637.3492,1.4778,1.6677,2.4737,3.1229,2.4737Z"
                 id="path200" />
              <path
                 class="t"
                 d="m789.2457,193.2375c.2446,0,.4927-.0282.7408-.0868l34.3-8.1027c1.7263-.4077,2.7953-2.1374,2.3876-3.8637-.4077-1.7266-2.1395-2.7953-3.8637-2.3869l-34.3,8.1027c-1.7263.4077-2.7953,2.1374-2.3876,3.8637.3492,1.4778,1.6677,2.4737,3.1229,2.4737Z"
                 id="path201" />
              <path
                 class="t"
                 d="m789.2457,179.7954c.2446,0,.4927-.0282.7408-.0868l34.3-8.1027c1.7263-.4077,2.7953-2.1374,2.3876-3.8637s-2.1395-2.7943-3.8637-2.3869l-34.3,8.1027c-1.7263.4077-2.7953,2.1374-2.3876,3.8637.3492,1.4778,1.6677,2.4737,3.1229,2.4737Z"
                 id="path202" />
              <path
                 class="t"
                 d="m789.2457,166.3533c.2446,0,.4927-.0282.7408-.0868l34.3-8.1027c1.7263-.4077,2.7953-2.1374,2.3876-3.8637-.4077-1.7263-2.1395-2.7953-3.8637-2.3869l-34.3,8.1027c-1.7263.4077-2.7953,2.1374-2.3876,3.8637.3492,1.4778,1.6677,2.4737,3.1229,2.4737Z"
                 id="path203" />
              <path
                 class="t"
                 d="m789.2457,152.9112c.2446,0,.4927-.0282.7408-.0868l34.3-8.1027c1.7263-.4077,2.7953-2.1374,2.3876-3.8637-.4077-1.7263-2.1395-2.7939-3.8637-2.3869l-34.3,8.1027c-1.7263.4077-2.7953,2.1374-2.3876,3.8637.3492,1.4778,1.6677,2.4737,3.1229,2.4737Z"
                 id="path204" />
            </g>
            <g
               id="g214">
              <g
                 id="g205">
                <line
                   class="t"
                   x1="823.5487"
                   y1="262.5752"
                   x2="789.2484"
                   y2="257.2356"
                   id="line204" />
                <path
                   class="t"
                   d="m823.5527,265.787c1.5555,0,2.9222-1.1325,3.1689-2.7176.2732-1.7527-.9269-3.3943-2.6789-3.6672l-34.3-5.3398c-1.7493-.2728-3.3947.9262-3.6672,2.6789-.2732,1.7527.9269,3.3943,2.6789,3.6672l34.3,5.3398c.1673.0261.3338.0387.4983.0387Z"
                   id="path205" />
              </g>
              <g
                 id="g206">
                <line
                   class="t"
                   x1="823.5487"
                   y1="249.1332"
                   x2="789.2484"
                   y2="243.7935"
                   id="line205" />
                <path
                   class="t"
                   d="m823.5527,252.3449c1.5555,0,2.9222-1.1325,3.1689-2.7176.2732-1.7527-.9269-3.3943-2.6789-3.6672l-34.3-5.3398c-1.7493-.2739-3.3947.9262-3.6672,2.6789-.2732,1.7527.9269,3.3943,2.6789,3.6672l34.3,5.3398c.1673.0261.3338.0387.4983.0387Z"
                   id="path206" />
              </g>
              <g
                 id="g207">
                <line
                   class="t"
                   x1="823.5487"
                   y1="235.6911"
                   x2="789.2484"
                   y2="230.3514"
                   id="line206" />
                <path
                   class="t"
                   d="m823.5527,238.9028c1.5555,0,2.9222-1.1325,3.1689-2.7176.2732-1.7527-.9269-3.3943-2.6789-3.6672l-34.3-5.3398c-1.7493-.2746-3.3947.9259-3.6672,2.6789-.2732,1.7527.9269,3.3943,2.6789,3.6672l34.3,5.3398c.1673.0261.3338.0387.4983.0387Z"
                   id="path207" />
              </g>
              <g
                 id="g208">
                <line
                   class="t"
                   x1="823.5487"
                   y1="222.249"
                   x2="789.2484"
                   y2="216.9094"
                   id="line207" />
                <path
                   class="t"
                   d="m823.5527,225.4607c1.5555,0,2.9222-1.1325,3.1689-2.7176.2732-1.7527-.9269-3.3943-2.6789-3.6672l-34.3-5.3398c-1.7493-.2753-3.3947.9259-3.6672,2.6789-.2732,1.7527.9269,3.3943,2.6789,3.6672l34.3,5.3398c.1673.0261.3338.0387.4983.0387Z"
                   id="path208" />
              </g>
              <g
                 id="g209">
                <line
                   class="t"
                   x1="823.5487"
                   y1="208.807"
                   x2="789.2484"
                   y2="203.4673"
                   id="line208" />
                <path
                   class="t"
                   d="m823.5527,212.0186c1.5555,0,2.9222-1.1325,3.1689-2.7176.2732-1.7527-.9269-3.3943-2.6789-3.6672l-34.3-5.3398c-1.7493-.276-3.3947.9262-3.6672,2.6789-.2732,1.7527.9269,3.3943,2.6789,3.6672l34.3,5.3398c.1673.0261.3338.0387.4983.0387Z"
                   id="path209" />
              </g>
              <g
                 id="g210">
                <line
                   class="t"
                   x1="823.5487"
                   y1="195.3649"
                   x2="789.2484"
                   y2="190.0252"
                   id="line209" />
                <path
                   class="t"
                   d="m823.5527,198.5765c1.5555,0,2.9222-1.1325,3.1689-2.7176.2732-1.7527-.9269-3.3943-2.6789-3.6672l-34.3-5.3394c-1.7493-.2735-3.3947.9262-3.6672,2.6789-.2732,1.7527.9269,3.3943,2.6789,3.6672l34.3,5.3394c.1673.0261.3338.0387.4983.0387Z"
                   id="path210" />
              </g>
              <g
                 id="g211">
                <line
                   class="t"
                   x1="823.5487"
                   y1="181.9228"
                   x2="789.2484"
                   y2="176.5832"
                   id="line210" />
                <path
                   class="t"
                   d="m823.5527,185.1345c1.5555,0,2.9222-1.1325,3.1689-2.7176.2732-1.7527-.9269-3.3943-2.6789-3.6672l-34.3-5.3394c-1.7493-.2742-3.3947.9262-3.6672,2.6789-.2732,1.7527.9269,3.3943,2.6789,3.6672l34.3,5.3394c.1673.0261.3338.0387.4983.0387Z"
                   id="path211" />
              </g>
              <g
                 id="g212">
                <line
                   class="t"
                   x1="823.5487"
                   y1="168.4808"
                   x2="789.2484"
                   y2="163.1411"
                   id="line211" />
                <path
                   class="t"
                   d="m823.5527,171.6924c1.5555,0,2.9222-1.1325,3.1689-2.7176.2732-1.7527-.9269-3.3943-2.6789-3.6672l-34.3-5.3394c-1.7493-.2749-3.3947.9259-3.6672,2.6789-.2732,1.7527.9269,3.3943,2.6789,3.6672l34.3,5.3394c.1673.0261.3338.0387.4983.0387Z"
                   id="path212" />
              </g>
              <g
                 id="g213">
                <line
                   class="t"
                   x1="823.5487"
                   y1="155.0387"
                   x2="789.2484"
                   y2="149.699"
                   id="line212" />
                <path
                   class="t"
                   d="m823.5527,158.2503c1.5555,0,2.9222-1.1325,3.1689-2.7176.2732-1.7527-.9269-3.3943-2.6789-3.6672l-34.3-5.3394c-1.7493-.2756-3.3947.9262-3.6672,2.6789-.2732,1.7527.9269,3.3943,2.6789,3.6672l34.3,5.3394c.1673.0261.3338.0387.4983.0387Z"
                   id="path213" />
              </g>
            </g>
          </g>
          <path
             class="t"
             d="m811.3055,144.7669l12.2766-.0198c.2948-.003.5797-.0459.8505-.1231,1.3564-.3872,2.3431-1.6429,2.3276-3.1217-.0185-1.7736-1.4711-3.1962-3.2444-3.1778l-12.2474-.0002-.0154-11.0118c-.0168-1.7715-1.4708-3.1967-3.2448-3.1781-1.7736.0185-3.1962,1.4711-3.1778,3.2444v14.205c0,1.7579,1.4251,3.183,3.183,3.183h3.292Z"
             id="path215" />
        </g>
        <path
           class="t"
           d="m782.9296,285.6937l23.4528-.0503.004-5.8591-.004-5.8591-17.1655-.0502c-1.7731-.0028-3.2091-1.4432-3.2056-3.2172.0029-1.7729,1.4467-3.2104,3.2172-3.2053l20.3519.0614c.4475.0007.8728.094,1.2595.2601,1.1597.4868,1.9744,1.6335,1.9707,2.9668v6.5846s0,4.9178,0,4.9178v6.5845c.0037,1.3334-.811,2.48-1.9707,2.9668-.3867.1663-.812.2595-1.2595.2603l-26.6392.0614c-1.7705.005-3.2142-1.4324-3.2172-3.2054-.0035-1.7739,1.4325-3.2142,3.2056-3.217Z"
           id="path216" />
      </g>
    </g>
    <g
       id="g224">
      <rect
         class="z"
         x="539.7907"
         y="322.635"
         width="28.3598"
         height="98.6127"
         id="rect218" />
      <rect
         class="v"
         x="539.617"
         y="411.3863"
         width="28.5335"
         height="9.8613"
         id="rect219" />
      <rect
         class="v"
         x="539.617"
         y="391.6638"
         width="28.5335"
         height="9.8613"
         id="rect220" />
      <rect
         class="v"
         x="539.617"
         y="371.9413"
         width="28.5335"
         height="9.8613"
         id="rect221" />
      <rect
         class="v"
         x="539.617"
         y="352.2188"
         width="28.5335"
         height="9.8613"
         id="rect222" />
      <rect
         class="v"
         x="539.617"
         y="332.4962"
         width="28.5335"
         height="9.8613"
         id="rect223" />
      <rect
         class="l"
         x="539.7907"
         y="322.635"
         width="28.3598"
         height="98.6127"
         id="rect224" />
    </g>
    <g
       id="g230">
      <rect
         class="z"
         x="756.1241"
         y="281.9604"
         width="28.3598"
         height="98.6127"
         id="rect225" />
      <rect
         class="v"
         x="755.9504"
         y="370.7118"
         width="28.5335"
         height="9.8613"
         id="rect226" />
      <rect
         class="v"
         x="755.9504"
         y="350.9892"
         width="28.5335"
         height="9.8613"
         id="rect227" />
      <rect
         class="v"
         x="755.9504"
         y="331.2667"
         width="28.5335"
         height="9.8613"
         id="rect228" />
      <rect
         class="v"
         x="755.9504"
         y="311.5442"
         width="28.5335"
         height="9.8613"
         id="rect229" />
      <rect
         class="v"
         x="755.9504"
         y="291.8216"
         width="28.5335"
         height="9.8613"
         id="rect230" />
    </g>
    <g
       id="g237">
      <rect
         class="z"
         x="323.7945"
         y="283.6272"
         width="28.3598"
         height="98.6127"
         id="rect231" />
      <g
         id="g236">
        <rect
           class="v"
           x="323.6208"
           y="372.3786"
           width="28.5335"
           height="9.8613"
           id="rect232" />
        <rect
           class="v"
           x="323.6208"
           y="352.656"
           width="28.5335"
           height="9.8613"
           id="rect233" />
        <rect
           class="v"
           x="323.6208"
           y="332.9335"
           width="28.5335"
           height="9.8613"
           id="rect234" />
        <rect
           class="v"
           x="323.6208"
           y="313.211"
           width="28.5335"
           height="9.8613"
           id="rect235" />
        <rect
           class="v"
           x="323.6208"
           y="293.4884"
           width="28.5335"
           height="9.8613"
           id="rect236" />
      </g>
      <rect
         class="l"
         x="323.7945"
         y="283.6272"
         width="28.3598"
         height="98.6127"
         id="rect237" />
    </g>
    <g
       id="g244">
      <rect
         class="z"
         x="107.3961"
         y="243.6503"
         width="28.3598"
         height="98.6127"
         id="rect238" />
      <rect
         class="v"
         x="107.2223"
         y="332.4017"
         width="28.5335"
         height="9.8613"
         id="rect239" />
      <rect
         class="v"
         x="107.2223"
         y="312.6792"
         width="28.5335"
         height="9.8613"
         id="rect240" />
      <rect
         class="v"
         x="107.2223"
         y="292.9567"
         width="28.5335"
         height="9.8613"
         id="rect241" />
      <rect
         class="v"
         x="107.2223"
         y="273.2341"
         width="28.5335"
         height="9.8613"
         id="rect242" />
      <rect
         class="v"
         x="107.2223"
         y="253.5116"
         width="28.5335"
         height="9.8613"
         id="rect243" />
      <rect
         class="l"
         x="107.3961"
         y="243.6503"
         width="28.3598"
         height="98.6127"
         id="rect244" />
    </g>
    <rect
       class="w"
       x="300.3263"
       y="418.1885"
       width="75.2961"
       height="42.0669"
       rx="10.6699"
       ry="10.6699"
       id="rect245" />
    <path
       class="w"
       d="m337.761,402.5637c-8.6293,0-15.6248,6.9954-15.6248,15.6248s6.9954,15.6249,15.6248,15.6249,15.6248-6.9955,15.6248-15.6249-6.9954-15.6248-15.6248-15.6248Zm-8.7235,15.6248c0-4.8178,3.9057-8.7235,8.7235-8.7235s8.7235,3.9057,8.7235,8.7235h-17.447Z"
       id="path245" />
    <rect
       class="l"
       x="756.1241"
       y="281.9604"
       width="28.3598"
       height="98.6127"
       id="rect246" />
    <g
       id="g257">
      <g
         id="g247">
        <rect
           class="w"
           x="516.3633"
           y="456.21"
           width="75.5459"
           height="42.3174"
           rx="10.7949"
           ry="10.7949"
           id="rect247" />
        <path
           class="u"
           d="m581.1146,456.3352c5.8928,0,10.6699,4.7771,10.6699,10.6699v20.7271c0,5.8928-4.7771,10.6699-10.6699,10.6699h-53.9563c-5.8928,0-10.6699-4.7771-10.6699-10.6699v-20.7271c0-5.8928,4.7771-10.6699,10.6699-10.6699h53.9563m0-.25h-53.9563c-6.0212,0-10.9199,4.8987-10.9199,10.9199v20.7271c0,6.0212,4.8987,10.9199,10.9199,10.9199h53.9563c6.0212,0,10.9199-4.8987,10.9199-10.9199v-20.7271c0-6.0212-4.8987-10.9199-10.9199-10.9199h0Z"
           id="path247" />
      </g>
      <g
         id="g248">
        <rect
           class="w"
           x="516.3633"
           y="498.2773"
           width="75.5459"
           height="42.3164"
           rx="10.7949"
           ry="10.7949"
           id="rect248" />
        <path
           class="u"
           d="m581.1146,498.4021c5.8928,0,10.6699,4.7771,10.6699,10.6699v20.7271c0,5.8928-4.7771,10.6699-10.6699,10.6699h-53.9563c-5.8928,0-10.6699-4.7771-10.6699-10.6699v-20.7271c0-5.8928,4.7771-10.6699,10.6699-10.6699h53.9563m0-.25h-53.9563c-6.0212,0-10.9199,4.8987-10.9199,10.9199v20.7271c0,6.0212,4.8987,10.9199,10.9199,10.9199h53.9563c6.0212,0,10.9199-4.8987,10.9199-10.9199v-20.7271c0-6.0212-4.8987-10.9199-10.9199-10.9199h0Z"
           id="path248" />
      </g>
      <path
         class="z"
         d="m581.1146,456.3352c5.8928,0,10.6699,4.7771,10.6699,10.6699v62.7939c0,5.8928-4.7771,10.6699-10.6699,10.6699h-53.9563c-5.8928,0-10.6699-4.7771-10.6699-10.6699v-62.7939c0-5.8928,4.7771-10.6699,10.6699-10.6699h53.9563m0-1h-53.9563c-6.4348,0-11.6699,5.2351-11.6699,11.6699v62.7939c0,6.4348,5.2351,11.6699,11.6699,11.6699h53.9563c6.4348,0,11.6699-5.2351,11.6699-11.6699v-62.7939c0-6.4348-5.2351-11.6699-11.6699-11.6699h0Z"
         id="path249" />
      <path
         class="w"
         d="m553.9231,440.7104c-8.6293,0-15.6248,6.9954-15.6248,15.6248s6.9954,15.6249,15.6248,15.6249,15.6248-6.9955,15.6248-15.6249-6.9954-15.6248-15.6248-15.6248Zm-8.7235,15.6248c0-4.8178,3.9057-8.7235,8.7235-8.7235s8.7235,3.9057,8.7235,8.7235h-17.447Z"
         id="path250" />
      <rect
         class="z"
         x="550.9122"
         y="456.1288"
         width="6.4257"
         height="84.3248"
         id="rect250" />
      <g
         id="g253">
        <path
           class="u"
           d="m565.6914,481.2021c3.2744-2.4111,4.2334-3.2383,4.2334-4.2227,0-.6953-.6348-1.043-1.3066-1.043-.8994,0-1.5957.3594-2.1348.9238l-.9717-1.1279c.7793-.8994,1.9668-1.3066,3.082-1.3066,1.7031,0,3.0586.959,3.0586,2.5537,0,1.3682-1.127,2.5547-3.2744,4.0664h3.334v1.499h-6.0205v-1.3428Z"
           id="path251" />
        <path
           class="u"
           d="m576.0459,474.4258c2.2793,0,3.3105,2.0625,3.3105,4.125s-1.0312,4.1377-3.3105,4.1377c-2.291,0-3.3096-2.0742-3.3096-4.1377s1.0186-4.125,3.3096-4.125Zm0,1.5107c-1.1514,0-1.583,1.1396-1.583,2.6143,0,1.4756.4316,2.627,1.583,2.627,1.1396,0,1.5713-1.1514,1.5713-2.627,0-1.4746-.4316-2.6143-1.5713-2.6143Z"
           id="path252" />
        <path
           class="u"
           d="m581.0869,482.9287c.4678.5156,1.0791.7197,1.8105.7197.7324,0,1.5957-.3242,1.5957-1.4629v-.5879c-.4561.5752-1.0801.9111-1.7871.9111-1.4512,0-2.5547-1.0195-2.5547-2.9502,0-1.8945,1.0918-2.9502,2.5547-2.9502.6953,0,1.3193.2998,1.7871.8877v-.7441h1.5352v5.3975c0,2.2061-1.7031,2.7461-3.1309,2.7461-.9951,0-1.7627-.2275-2.4941-.8633l.6836-1.1035Zm3.4062-4.3057c-.252-.3838-.8037-.6592-1.3076-.6592-.8633,0-1.4629.5996-1.4629,1.5947s.5996,1.5947,1.4629,1.5947c.5039,0,1.0557-.2871,1.3076-.6592v-1.8711Z"
           id="path253" />
      </g>
      <g
         id="g256">
        <path
           class="u"
           d="m565.6914,522.9795c3.2744-2.4111,4.2334-3.2383,4.2334-4.2227,0-.6953-.6348-1.043-1.3066-1.043-.8994,0-1.5957.3594-2.1348.9238l-.9717-1.1279c.7793-.8994,1.9668-1.3066,3.082-1.3066,1.7031,0,3.0586.959,3.0586,2.5537,0,1.3682-1.127,2.5547-3.2744,4.0664h3.334v1.499h-6.0205v-1.3428Z"
           id="path254" />
        <path
           class="u"
           d="m576.0459,516.2031c2.2793,0,3.3105,2.0625,3.3105,4.125s-1.0312,4.1377-3.3105,4.1377c-2.291,0-3.3096-2.0742-3.3096-4.1377s1.0186-4.125,3.3096-4.125Zm0,1.5107c-1.1514,0-1.583,1.1396-1.583,2.6143,0,1.4756.4316,2.627,1.583,2.627,1.1396,0,1.5713-1.1514,1.5713-2.627,0-1.4746-.4316-2.6143-1.5713-2.6143Z"
           id="path255" />
        <path
           class="u"
           d="m581.0869,524.7061c.4678.5156,1.0791.7197,1.8105.7197.7324,0,1.5957-.3242,1.5957-1.4629v-.5879c-.4561.5752-1.0801.9111-1.7871.9111-1.4512,0-2.5547-1.0195-2.5547-2.9502,0-1.8945,1.0918-2.9502,2.5547-2.9502.6953,0,1.3193.2998,1.7871.8877v-.7441h1.5352v5.3975c0,2.2061-1.7031,2.7461-3.1309,2.7461-.9951,0-1.7627-.2275-2.4941-.8633l.6836-1.1035Zm3.4062-4.3057c-.252-.3838-.8037-.6592-1.3076-.6592-.8633,0-1.4629.5996-1.4629,1.5947s.5996,1.5947,1.4629,1.5947c.5039,0,1.0557-.2871,1.3076-.6592v-1.8711Z"
           id="path256" />
      </g>
    </g>
    <g
       id="g267">
      <g
         id="g258">
        <rect
           class="w"
           x="732.4619"
           y="415.6143"
           width="75.5469"
           height="42.3164"
           rx="10.7949"
           ry="10.7949"
           id="rect257" />
        <path
           class="u"
           d="m797.2135,415.7389c5.8928,0,10.6699,4.7771,10.6699,10.6699v20.7271c0,5.8928-4.7771,10.6699-10.6699,10.6699h-53.9563c-5.8928,0-10.6699-4.7771-10.6699-10.6699v-20.7271c0-5.8928,4.7771-10.6699,10.6699-10.6699h53.9563m0-.25h-53.9563c-6.0212,0-10.9199,4.8987-10.9199,10.9199v20.7271c0,6.0212,4.8987,10.9199,10.9199,10.9199h53.9563c6.0212,0,10.9199-4.8987,10.9199-10.9199v-20.7271c0-6.0212-4.8987-10.9199-10.9199-10.9199h0Z"
           id="path257" />
      </g>
      <g
         id="g259">
        <rect
           class="w"
           x="732.4619"
           y="457.6807"
           width="75.5469"
           height="42.3174"
           rx="10.7949"
           ry="10.7949"
           id="rect258" />
        <path
           class="u"
           d="m797.2135,457.8058c5.8928,0,10.6699,4.777,10.6699,10.6698v20.7271c0,5.8928-4.7771,10.6699-10.6699,10.6699h-53.9563c-5.8928,0-10.6699-4.7771-10.6699-10.6699v-20.7271c0-5.8928,4.7771-10.6698,10.6699-10.6698h53.9563m0-.25h-53.9563c-6.0212,0-10.9199,4.8986-10.9199,10.9198v20.7271c0,6.0212,4.8987,10.9199,10.9199,10.9199h53.9563c6.0212,0,10.9199-4.8987,10.9199-10.9199v-20.7271c0-6.0212-4.8987-10.9198-10.9199-10.9198h0Z"
           id="path258" />
      </g>
      <path
         class="z"
         d="m797.2135,415.7389c5.8928,0,10.6699,4.7771,10.6699,10.6699v62.7938c0,5.8928-4.7771,10.6699-10.6699,10.6699h-53.9563c-5.8928,0-10.6699-4.7771-10.6699-10.6699v-62.7938c0-5.8928,4.7771-10.6699,10.6699-10.6699h53.9563m0-1h-53.9563c-6.4348,0-11.6699,5.2351-11.6699,11.6699v62.7938c0,6.4348,5.2351,11.6699,11.6699,11.6699h53.9563c6.4348,0,11.6699-5.2351,11.6699-11.6699v-62.7938c0-6.4348-5.2351-11.6699-11.6699-11.6699h0Z"
         id="path259" />
      <path
         class="w"
         d="m770.0219,400.114c-8.6293,0-15.6248,6.9954-15.6248,15.6248s6.9954,15.6249,15.6248,15.6249,15.6248-6.9955,15.6248-15.6249-6.9954-15.6248-15.6248-15.6248Zm-8.7235,15.6248c0-4.8178,3.9057-8.7235,8.7235-8.7235s8.7235,3.9057,8.7235,8.7235h-17.447Z"
         id="path260" />
      <rect
         class="z"
         x="767.0111"
         y="415.5324"
         width="6.4257"
         height="84.3248"
         id="rect260" />
      <g
         id="g263">
        <path
           class="u"
           d="m781.79,440.6064c3.2744-2.4111,4.2334-3.2383,4.2334-4.2227,0-.6953-.6348-1.043-1.3066-1.043-.8994,0-1.5957.3594-2.1348.9238l-.9717-1.1279c.7793-.8994,1.9668-1.3066,3.082-1.3066,1.7031,0,3.0586.959,3.0586,2.5537,0,1.3682-1.127,2.5547-3.2744,4.0664h3.334v1.499h-6.0205v-1.3428Z"
           id="path261" />
        <path
           class="u"
           d="m792.1445,433.8301c2.2793,0,3.3105,2.0625,3.3105,4.125s-1.0312,4.1377-3.3105,4.1377c-2.291,0-3.3096-2.0742-3.3096-4.1377s1.0186-4.125,3.3096-4.125Zm0,1.5107c-1.1514,0-1.583,1.1396-1.583,2.6143,0,1.4756.4316,2.627,1.583,2.627,1.1396,0,1.5713-1.1514,1.5713-2.627,0-1.4746-.4316-2.6143-1.5713-2.6143Z"
           id="path262" />
        <path
           class="u"
           d="m797.1855,442.333c.4678.5156,1.0791.7197,1.8105.7197.7324,0,1.5957-.3242,1.5957-1.4629v-.5879c-.4561.5752-1.0801.9111-1.7871.9111-1.4512,0-2.5547-1.0195-2.5547-2.9502,0-1.8945,1.0918-2.9502,2.5547-2.9502.6953,0,1.3193.2998,1.7871.8877v-.7441h1.5352v5.3975c0,2.2061-1.7031,2.7461-3.1309,2.7461-.9951,0-1.7627-.2275-2.4941-.8633l.6836-1.1035Zm3.4062-4.3057c-.252-.3838-.8037-.6592-1.3076-.6592-.8633,0-1.4629.5996-1.4629,1.5947s.5996,1.5947,1.4629,1.5947c.5039,0,1.0557-.2871,1.3076-.6592v-1.8711Z"
           id="path263" />
      </g>
      <g
         id="g266">
        <path
           class="u"
           d="m781.79,482.3838c3.2744-2.4111,4.2334-3.2383,4.2334-4.2227,0-.6953-.6348-1.043-1.3066-1.043-.8994,0-1.5957.3594-2.1348.9238l-.9717-1.1279c.7793-.8994,1.9668-1.3066,3.082-1.3066,1.7031,0,3.0586.959,3.0586,2.5537,0,1.3682-1.127,2.5547-3.2744,4.0664h3.334v1.499h-6.0205v-1.3428Z"
           id="path264" />
        <path
           class="u"
           d="m792.1445,475.6074c2.2793,0,3.3105,2.0625,3.3105,4.125s-1.0312,4.1377-3.3105,4.1377c-2.291,0-3.3096-2.0742-3.3096-4.1377s1.0186-4.125,3.3096-4.125Zm0,1.5107c-1.1514,0-1.583,1.1396-1.583,2.6143,0,1.4756.4316,2.627,1.583,2.627,1.1396,0,1.5713-1.1514,1.5713-2.627,0-1.4746-.4316-2.6143-1.5713-2.6143Z"
           id="path265" />
        <path
           class="u"
           d="m797.1855,484.1104c.4678.5156,1.0791.7197,1.8105.7197.7324,0,1.5957-.3242,1.5957-1.4629v-.5879c-.4561.5752-1.0801.9111-1.7871.9111-1.4512,0-2.5547-1.0195-2.5547-2.9502,0-1.8945,1.0918-2.9502,2.5547-2.9502.6953,0,1.3193.2998,1.7871.8877v-.7441h1.5352v5.3975c0,2.2061-1.7031,2.7461-3.1309,2.7461-.9951,0-1.7627-.2275-2.4941-.8633l.6836-1.1035Zm3.4062-4.3057c-.252-.3838-.8037-.6592-1.3076-.6592-.8633,0-1.4629.5996-1.4629,1.5947s.5996,1.5947,1.4629,1.5947c.5039,0,1.0557-.2871,1.3076-.6592v-1.8711Z"
           id="path266" />
      </g>
    </g>
    <path
       class="t"
       d="m770.304,413.8309c7.1645.3294,13.2575-4.5091,14.8681-11.105.4327-1.7721-.9532-3.4743-2.7773-3.4743h-.231c-1.2774,0-2.3288.9077-2.6406,2.1464-.9802,3.894-4.564,6.7648-8.7844,6.6451"
       id="path267" />
    <path
       class="l"
       d="m770.304,413.8309c7.1645.3294,13.2575-4.5091,14.8681-11.105.4327-1.7721-.9532-3.4743-2.7773-3.4743h-.231c-1.2774,0-2.3288.9077-2.6406,2.1464-.9802,3.894-4.6626,6.7603-8.883,6.6407"
       id="path268" />
    <path
       class="s"
       d="m553.6156,454.5644c7.1645.3294,13.2575-4.5091,14.8681-11.105.4327-1.7721-.9532-3.4743-2.7773-3.4743h-.231c-1.2774,0-2.3288.9077-2.6406,2.1464-.9802,3.894-4.6626,6.7603-8.883,6.6407"
       id="path269" />
    <path
       class="l"
       d="m553.6156,454.5644c7.1645.3294,13.2575-4.5091,14.8681-11.105.4327-1.7721-.9532-3.4743-2.7773-3.4743h-.231c-1.2774,0-2.3288.9077-2.6406,2.1464-.9802,3.894-4.6626,6.7603-8.883,6.6407"
       id="path270" />
    <path
       class="t"
       d="m337.3414,415.7631c7.1645.3294,13.2575-4.5091,14.8681-11.105.4327-1.7721-.9532-3.4743-2.7773-3.4743h-.231c-1.2774,0-2.3288.9077-2.6406,2.1464-.9802,3.894-4.6626,6.7603-8.883,6.6407"
       id="path271" />
    <path
       class="l"
       d="m337.3414,415.7631c7.1645.3294,13.2575-4.5091,14.8681-11.105.4327-1.7721-.9532-3.4743-2.7773-3.4743h-.231c-1.2774,0-2.3288.9077-2.6406,2.1464-.9802,3.894-4.6626,6.7603-8.883,6.6407"
       id="path272" />
    <path
       class="v"
       d="m190.6564,93.6076l-11.8903,24.3807c-2.6012,5.3338-6.5897,8.4508-10.8134,8.4508h-90.1015c-4.2803,0-8.3221-3.1597-10.9575-8.5659l-11.8293-24.267"
       id="path273" />
    <path
       class="v"
       d="m405.1374,93.6076l-11.8903,24.3807c-2.6012,5.3338-6.5897,8.4508-10.8134,8.4508h-90.1015c-4.2803,0-8.3221-3.1597-10.9575-8.5659l-11.8293-24.267"
       id="path274" />
    <path
       class="v"
       d="m622.6137,93.6076l-11.8903,24.3807c-2.6012,5.3338-6.5897,8.4508-10.8134,8.4508h-90.1015c-4.2803,0-8.3221-3.1597-10.9575-8.5659l-11.8293-24.267"
       id="path275" />
    <path
       class="v"
       d="m855.9069,93.6076l-11.8903,24.3807c-2.6012,5.3338-6.5897,8.4508-10.8134,8.4508h-132.3012c-4.2803,0-8.3221-3.1597-10.9575-8.5659l-11.8293-24.267"
       id="path276" />
    <g
       id="g279">
      <path
         class="u"
         d="m348.2754,440.9141c3.2744-2.4111,4.2334-3.2383,4.2334-4.2227,0-.6953-.6348-1.043-1.3066-1.043-.8994,0-1.5957.3594-2.1348.9238l-.9717-1.1279c.7793-.8994,1.9668-1.3066,3.082-1.3066,1.7031,0,3.0586.959,3.0586,2.5537,0,1.3682-1.127,2.5547-3.2744,4.0664h3.334v1.499h-6.0205v-1.3428Z"
         id="path277" />
      <path
         class="u"
         d="m358.6299,434.1377c2.2793,0,3.3105,2.0625,3.3105,4.125s-1.0312,4.1377-3.3105,4.1377c-2.291,0-3.3096-2.0742-3.3096-4.1377s1.0186-4.125,3.3096-4.125Zm0,1.5107c-1.1514,0-1.583,1.1396-1.583,2.6143,0,1.4756.4316,2.627,1.583,2.627,1.1396,0,1.5713-1.1514,1.5713-2.627,0-1.4746-.4316-2.6143-1.5713-2.6143Z"
         id="path278" />
      <path
         class="u"
         d="m363.6709,442.6406c.4678.5156,1.0791.7197,1.8105.7197.7324,0,1.5957-.3242,1.5957-1.4629v-.5879c-.4561.5752-1.0801.9111-1.7871.9111-1.4512,0-2.5547-1.0195-2.5547-2.9502,0-1.8945,1.0918-2.9502,2.5547-2.9502.6953,0,1.3193.2998,1.7871.8877v-.7441h1.5352v5.3975c0,2.2061-1.7031,2.7461-3.1309,2.7461-.9951,0-1.7627-.2275-2.4941-.8633l.6836-1.1035Zm3.4062-4.3057c-.252-.3838-.8037-.6592-1.3076-.6592-.8633,0-1.4629.5996-1.4629,1.5947s.5996,1.5947,1.4629,1.5947c.5039,0,1.0557-.2871,1.3076-.6592v-1.8711Z"
         id="path279" />
    </g>
    <g
       id="g280">
      <polygon
         class="y"
         points="279.833 351.187 275.2725 343.5488 270.8984 351.21 279.833 351.187"
         id="polygon279" />
      <rect
         class="y"
         x="274.5862"
         y="345.741"
         width="1.5591"
         height="29.7095"
         transform="translate(550.7314 721.1914) rotate(180)"
         id="rect279" />
      <polygon
         class="y"
         points="270.8984 373.4838 275.4376 381.1346 279.833 373.4857 270.8984 373.4838"
         id="polygon280" />
    </g>
    <g
       id="g282">
      <polygon
         class="y"
         points="710.3785 349.9575 705.818 342.3193 701.444 349.9805 710.3785 349.9575"
         id="polygon281" />
      <rect
         class="y"
         x="705.1317"
         y="344.5114"
         width="1.5591"
         height="29.7095"
         transform="translate(1411.8225 718.7324) rotate(180)"
         id="rect281" />
      <polygon
         class="y"
         points="701.444 372.2542 705.9831 379.9051 710.3785 372.2561 701.444 372.2542"
         id="polygon282" />
    </g>
    <g
       id="g284">
      <polygon
         class="y"
         points="488.6622 351.8356 484.1017 344.1974 479.7276 351.8586 488.6622 351.8356"
         id="polygon283" />
      <rect
         class="y"
         x="483.4154"
         y="346.3895"
         width="1.5591"
         height="68.1263"
         transform="translate(968.3898 760.9053) rotate(180)"
         id="rect283" />
      <polygon
         class="y"
         points="479.7276 412.5491 484.2668 420.2 488.6622 412.551 479.7276 412.5491"
         id="polygon284" />
    </g>
    <g
       id="g285">
      <path
         class="y"
         d="m283.959,364.9082h-3.8262v-1.3428l3.1787-5.002h2.3506v4.8457h1.0312v1.499h-1.0312v1.6553h-1.7031v-1.6553Zm-2.1592-1.499h2.1592v-3.334l-2.1592,3.334Z"
         id="path284" />
      <path
         class="y"
         d="m290.0195,364.6084l-1.3311,1.9551h-1.6914l2.0508-2.9746-1.9307-2.8184h1.7031l1.1992,1.7871,1.1875-1.7871h1.7031l-1.9434,2.8184,2.0752,2.9746h-1.7031l-1.3193-1.9551Z"
         id="path285" />
    </g>
    <g
       id="g287">
      <path
         class="w"
         d="m119.2275,109.9277l-2.2197,2.2598-1.6211-1.7002,4.2012-4.2207h2.4805v13.3428h-2.8408v-9.6816Z"
         id="path286" />
      <path
         class="w"
         d="m125.9473,116.5889c.8799,0,1.6201.7402,1.6201,1.6201s-.7402,1.6201-1.6201,1.6201-1.6201-.7402-1.6201-1.6201.7402-1.6201,1.6201-1.6201Z"
         id="path287" />
    </g>
    <g
       id="g289">
      <path
         class="w"
         d="m547.9082,115.8486c.9199.96,2.3799,1.5205,3.6807,1.5205,1.6201,0,2.5205-.7002,2.5205-1.7207,0-1.0801-.8203-1.5801-2.6807-1.5801-.5605,0-1.4609,0-1.6602.0195v-2.4805c.2393.0205,1.1602.0205,1.6602.0205,1.4805,0,2.46-.4805,2.46-1.4805,0-1.0605-1.0801-1.6006-2.4805-1.6006-1.2803,0-2.46.5-3.4004,1.4004l-1.4004-1.7607c1.0801-1.2197,2.7607-2.1201,5.1016-2.1201,3.1201,0,5.041,1.4004,5.041,3.6211,0,1.6797-1.4404,2.7803-2.9209,3.04,1.3604.1406,3.1201,1.2002,3.1201,3.2012,0,2.3008-2.0596,3.9209-5.2607,3.9209-2.46,0-4.2812-.9404-5.2607-2.1406l1.4805-1.8604Z"
         id="path288" />
      <path
         class="w"
         d="m560.3281,116.5889c.8799,0,1.6201.7402,1.6201,1.6201s-.7402,1.6201-1.6201,1.6201-1.6201-.7402-1.6201-1.6201.7402-1.6201,1.6201-1.6201Z"
         id="path289" />
    </g>
    <g
       id="g291">
      <path
         class="w"
         d="m768.2891,116.8486h-6.3818v-2.2402l5.3008-8.3418h3.9209v8.082h1.7207v2.5h-1.7207v2.7607h-2.8398v-2.7607Zm-3.6016-2.5h3.6016v-5.5615l-3.6016,5.5615Z"
         id="path290" />
      <path
         class="w"
         d="m775.9072,116.5889c.8799,0,1.6201.7402,1.6201,1.6201s-.7402,1.6201-1.6201,1.6201-1.6201-.7402-1.6201-1.6201.7402-1.6201,1.6201-1.6201Z"
         id="path291" />
    </g>
    <g
       id="g293">
      <path
         class="w"
         d="m330.8799,117.3682c5.4609-4.0215,7.0615-5.4014,7.0615-7.042,0-1.1602-1.0605-1.7402-2.1807-1.7402-1.5,0-2.6602.6006-3.5605,1.54l-1.6201-1.8799c1.2998-1.5,3.2803-2.1807,5.1406-2.1807,2.8408,0,5.1016,1.6006,5.1016,4.2607,0,2.2803-1.8809,4.2607-5.4619,6.7812h5.5615v2.501h-10.042v-2.2402Z"
         id="path292" />
      <path
         class="w"
         d="m344.5,116.5879c.8799,0,1.6201.7402,1.6201,1.6201s-.7402,1.6201-1.6201,1.6201-1.6201-.7402-1.6201-1.6201.7402-1.6201,1.6201-1.6201Z"
         id="path293" />
    </g>
    <g
       id="g295">
      <path
         class="y"
         d="m490.7969,381.6621c-.8877-.3115-1.583-.8877-1.583-1.8828,0-1.499,1.5947-2.1104,3.082-2.1104,1.4756,0,3.083.6113,3.083,2.1104,0,.9951-.708,1.5713-1.5957,1.8828.96.3359,1.7275,1.0801,1.7275,2.0508,0,1.4873-1.5352,2.2188-3.2148,2.2188-1.6787,0-3.2139-.7188-3.2139-2.2188,0-.9707.7559-1.7148,1.7148-2.0508Zm1.499.7559c-.5039.0596-1.4873.3955-1.4873,1.0918,0,.5869.6484.959,1.4873.959.8154,0,1.4873-.3721,1.4873-.959,0-.6963-.9951-1.0322-1.4873-1.0918Zm0-3.2861c-.791,0-1.3555.3477-1.3555.9111,0,.624.8643.8994,1.3555.9717.4922-.0723,1.3438-.3477,1.3438-.9717,0-.5635-.5635-.9111-1.3438-.9111Z"
         id="path294" />
      <path
         class="y"
         d="m498.9561,383.833l-1.3311,1.9551h-1.6914l2.0508-2.9746-1.9307-2.8184h1.7031l1.1992,1.7871,1.1875-1.7871h1.7031l-1.9434,2.8184,2.0752,2.9746h-1.7031l-1.3193-1.9551Z"
         id="path295" />
    </g>
    <g
       id="g297">
      <path
         class="y"
         d="m713.8398,361.208c-.8877-.3115-1.583-.8877-1.583-1.8828,0-1.499,1.5947-2.1104,3.082-2.1104,1.4756,0,3.083.6113,3.083,2.1104,0,.9951-.708,1.5713-1.5957,1.8828.96.3359,1.7275,1.0801,1.7275,2.0508,0,1.4873-1.5352,2.2188-3.2148,2.2188-1.6787,0-3.2139-.7188-3.2139-2.2188,0-.9707.7559-1.7148,1.7148-2.0508Zm1.499.7559c-.5039.0596-1.4873.3955-1.4873,1.0918,0,.5869.6484.959,1.4873.959.8154,0,1.4873-.3721,1.4873-.959,0-.6963-.9951-1.0322-1.4873-1.0918Zm0-3.2861c-.791,0-1.3555.3477-1.3555.9111,0,.624.8643.8994,1.3555.9717.4922-.0723,1.3438-.3477,1.3438-.9717,0-.5635-.5635-.9111-1.3438-.9111Z"
         id="path296" />
      <path
         class="y"
         d="m721.999,363.3789l-1.3311,1.9551h-1.6914l2.0508-2.9746-1.9307-2.8184h1.7031l1.1992,1.7871,1.1875-1.7871h1.7031l-1.9434,2.8184,2.0752,2.9746h-1.7031l-1.3193-1.9551Z"
         id="path297" />
    </g>
  </g>
</svg>
